<?xml version="1.0" encoding="UTF-8"?>
<!DOCTYPE svg PUBLIC "-//W3C//DTD SVG 1.1//EN" "http://www.w3.org/Graphics/SVG/1.1/DTD/svg11.dtd">
<!-- Creator: CorelDRAW 2020 (64-Bit Versión de evaluación) -->
<svg xmlns="http://www.w3.org/2000/svg" xml:space="preserve" width="183px" height="200px" version="1.1" style="shape-rendering:geometricPrecision; text-rendering:geometricPrecision; image-rendering:optimizeQuality; fill-rule:evenodd; clip-rule:evenodd"
viewBox="0 0 183 199.64"
 xmlns:xlink="http://www.w3.org/1999/xlink"
 xmlns:xodm="http://www.corel.com/coreldraw/odm/2003">
 <defs>
  <style type="text/css">
   <![CDATA[
    .fil0 {fill:#BF3A00;fill-rule:nonzero}
    .fil5 {fill:#D38622;fill-rule:nonzero}
    .fil4 {fill:#FBB121;fill-rule:nonzero}
    .fil1 {fill:#FBDE00;fill-rule:nonzero}
    .fil2 {fill:#FCA500;fill-rule:nonzero}
    .fil3 {fill:#FDBA19;fill-rule:nonzero}
    .fil6 {fill:white;fill-rule:nonzero}
   ]]>
  </style>
 </defs>
 <g id="Capa_x0020_1">
  <metadata id="CorelCorpID_0Corel-Layer"/>
  <g id="_2219377054496">
   <path class="fil0" d="M182.67 142.93c0,31.32 -40.97,56.71 -91.5,56.71 -50.54,0 -91.5,-25.39 -91.5,-56.71 0,-31.32 40.96,-56.72 91.5,-56.72 50.53,0 91.5,25.4 91.5,56.72z"/>
   <path class="fil1" d="M162.13 92.69c-6.61,44.03 -38.49,75.74 -71.2,70.82 -32.71,-4.91 -53.87,-44.58 -47.25,-88.61 6.61,-44.03 38.49,-75.75 71.2,-70.83 32.71,4.91 53.86,44.58 47.25,88.62z"/>
   <path class="fil2" d="M120.13 5.93c-1.75,-0.49 -3.56,-0.88 -5.36,-1.15 -32.26,-4.84 -63.83,26.66 -70.37,70.23 -6.17,41.1 11.57,78.35 41.28,86.64 1.75,0.49 3.56,0.88 5.36,1.15 15.59,2.34 31.49,-3.65 44.77,-16.86 13.34,-13.27 22.43,-32.22 25.61,-53.36 6.17,-41.11 -11.58,-78.36 -41.29,-86.65zm-34.84 157.12c-30.41,-8.49 -48.61,-46.43 -42.33,-88.26 6.66,-44.36 38.97,-76.41 72.02,-71.44 1.87,0.28 3.73,0.68 5.54,1.18 30.41,8.49 48.61,46.44 42.33,88.26 -3.22,21.45 -12.46,40.69 -26.02,54.18 -13.62,13.54 -29.95,19.67 -46.01,17.26 -1.86,-0.28 -3.72,-0.67 -5.53,-1.18z"/>
   <path class="fil3" d="M155.92 91.46c-5.49,36.56 -31.96,62.89 -59.12,58.81 -27.16,-4.08 -44.72,-37.02 -39.23,-73.57 5.49,-36.56 31.95,-62.89 59.11,-58.81 27.16,4.07 44.73,37.02 39.24,73.57z"/>
   <path class="fil3" d="M155.92 91.46c-5.49,36.56 -31.96,62.89 -59.12,58.81 -27.16,-4.08 -44.72,-37.02 -39.23,-73.57 5.49,-36.56 31.95,-62.89 59.11,-58.81 27.16,4.07 44.73,37.02 39.24,73.57z"/>
   <g>
    <image x="54.28" y="13.07" width="85.53" height="130.81" xlink:href="COIN_AMARILLO_Images\COIN_AMARILLO_ImgID1.png"/>
   </g>
   <path class="fil4" d="M43.68 74.9c6.08,-40.53 33.57,-70.59 63.41,-71.3 -2.92,-1.09 -5.97,-1.9 -9.13,-2.38 -32.71,-4.91 -64.59,26.81 -71.2,70.84 -6.61,44.03 14.54,83.71 47.25,88.62 2.61,0.39 5.21,0.52 7.79,0.46 -27.4,-10.25 -44.1,-46.46 -38.12,-86.24z"/>
   <path class="fil5" d="M103.15 3.08c-1.74,-0.49 -3.52,-0.87 -5.3,-1.14 -32.26,-4.84 -63.83,26.66 -70.37,70.23 -6.18,41.1 11.57,78.35 41.28,86.64 1.76,0.49 3.56,0.88 5.36,1.15 1.28,0.19 2.59,0.32 3.94,0.4 -26.17,-12.2 -40.83,-47.4 -35.1,-85.57 5.8,-38.61 31.36,-68.62 60.34,-71.67 -0.05,-0.01 -0.1,-0.03 -0.15,-0.04zm-34.78 157.13c-30.41,-8.49 -48.61,-46.43 -42.33,-88.26 6.66,-44.36 38.97,-76.41 72.03,-71.44 3.13,0.47 6.26,1.28 9.28,2.41 0.32,0.12 0.52,0.46 0.46,0.8 -0.06,0.35 -0.35,0.6 -0.7,0.61 -29.81,0.7 -56.77,31.09 -62.72,70.67 -5.87,39.16 9.96,75.1 37.66,85.46 0.33,0.12 0.52,0.46 0.46,0.8 -0.06,0.34 -0.35,0.6 -0.7,0.61 -2.73,0.06 -5.39,-0.1 -7.91,-0.48 -1.86,-0.28 -3.72,-0.67 -5.53,-1.18z"/>
   <path class="fil4" d="M43.68 74.9c6.08,-40.53 33.57,-70.59 63.41,-71.3 -2.92,-1.09 -5.97,-1.9 -9.13,-2.38 -32.71,-4.91 -64.59,26.81 -71.2,70.84 -6.61,44.03 14.54,83.71 47.25,88.62 2.61,0.39 5.21,0.52 7.79,0.46 -27.4,-10.25 -44.1,-46.46 -38.12,-86.24z"/>
   <path class="fil5" d="M103.15 3.08c-1.74,-0.49 -3.52,-0.87 -5.3,-1.14 -32.26,-4.84 -63.83,26.66 -70.37,70.23 -6.18,41.1 11.57,78.35 41.28,86.64 1.76,0.49 3.56,0.88 5.36,1.15 1.28,0.19 2.59,0.32 3.94,0.4 -26.17,-12.2 -40.83,-47.4 -35.1,-85.57 5.8,-38.61 31.36,-68.62 60.34,-71.67 -0.05,-0.01 -0.1,-0.03 -0.15,-0.04zm-34.78 157.13c-30.41,-8.49 -48.61,-46.43 -42.33,-88.26 6.66,-44.36 38.97,-76.41 72.03,-71.44 3.13,0.47 6.26,1.28 9.28,2.41 0.32,0.12 0.52,0.46 0.46,0.8 -0.06,0.35 -0.35,0.6 -0.7,0.61 -29.81,0.7 -56.77,31.09 -62.72,70.67 -5.87,39.16 9.96,75.1 37.66,85.46 0.33,0.12 0.52,0.46 0.46,0.8 -0.06,0.34 -0.35,0.6 -0.7,0.61 -2.73,0.06 -5.39,-0.1 -7.91,-0.48 -1.86,-0.28 -3.72,-0.67 -5.53,-1.18z"/>
   <g>
    <image x="24.95" y="0.73" width="70.87" height="160.43" xlink:href="COIN_AMARILLO_Images\COIN_AMARILLO_ImgID2.png"/>
   </g>
   <path class="fil5" d="M111.88 94.64c2.21,4.58 1.83,9.5 -0.05,13.72l0.05 -13.72zm-10.52 -20.69c-11.32,-3.16 -12.2,-16.73 -0.03,-17.53l0.04 17.53c0,0 -0.01,0 -0.01,0zm26.12 40.08c4.8,-19.2 -5.2,-30.06 -15.55,-35.77l0.07 -20.07c6.49,2.74 7.84,7.61 7.84,7.61l7.12 -3.92c0,0 1.94,-9.55 -14.91,-15.05l0.02 -7.19 -10.78 -1.88 0.02 7.17c-12,-0.1 -18.64,7.41 -19.49,12.64 -1.06,6.49 -4.49,16.08 19.2,27.28 0.13,0.06 0.25,0.13 0.38,0.19l0.07 33.29c-1.69,0.58 -3.42,0.8 -5.12,0.57 -13.08,-1.77 -10.69,-11.65 -10.69,-11.65l-10.15 3.95c0,0 -2.77,4.5 9.01,14.95 4.6,3.46 10.74,5.23 16.98,5.24l0.02 10.81 10.18 1.34 0.05 -13.8c7.18,-2.44 13.3,-7.62 15.73,-15.71z"/>
   <g>
    <image x="56.72" y="32.81" width="100.2" height="118.47" xlink:href="COIN_AMARILLO_Images\COIN_AMARILLO_ImgID3.png"/>
   </g>
   <path class="fil6" d="M155.92 91.46c1.94,-12.92 0.99,-25.39 -2.24,-36.29 2.61,10.23 3.27,21.71 1.49,33.57 -5.49,36.56 -31.96,62.89 -59.12,58.81 -17.55,-2.63 -31.09,-17.34 -36.99,-37.28 5.44,21.32 19.39,37.25 37.74,40 27.16,4.08 53.63,-22.25 59.12,-58.81z"/>
   <g>
    <image x="24.95" y="0.73" width="85.53" height="160.43" xlink:href="COIN_AMARILLO_Images\COIN_AMARILLO_ImgID4.png"/>
   </g>
  </g>
 </g>
</svg>
