<?xml version="1.0" encoding="UTF-8"?>
<!DOCTYPE svg PUBLIC "-//W3C//DTD SVG 1.1//EN" "http://www.w3.org/Graphics/SVG/1.1/DTD/svg11.dtd">
<!-- Creator: CorelDRAW 2020 (64-Bit Versión de evaluación) -->
<svg xmlns="http://www.w3.org/2000/svg" xml:space="preserve" width="540px" height="409px" version="1.1" style="shape-rendering:geometricPrecision; text-rendering:geometricPrecision; image-rendering:optimizeQuality; fill-rule:evenodd; clip-rule:evenodd"
viewBox="0 0 540 408.92"
 xmlns:xlink="http://www.w3.org/1999/xlink"
 xmlns:xodm="http://www.corel.com/coreldraw/odm/2003">
 <defs>
  <style type="text/css">
   <![CDATA[
    .str0 {stroke:#260C0D;stroke-width:25;stroke-miterlimit:10}
    .fil20 {fill:none;fill-rule:nonzero}
    .fil2 {fill:#12A8DC}
    .fil1 {fill:#1E3E85}
    .fil0 {fill:#260C0D}
    .fil3 {fill:#361320}
    .fil4 {fill:#501825}
    .fil5 {fill:#BF3318}
    .fil8 {fill:#E42320}
    .fil7 {fill:#F19021}
    .fil6 {fill:#F25900}
    .fil9 {fill:#260C0D;fill-rule:nonzero}
    .fil11 {fill:#80612F;fill-rule:nonzero}
    .fil15 {fill:#91ADB8;fill-rule:nonzero}
    .fil18 {fill:#A57176;fill-rule:nonzero}
    .fil10 {fill:#CBA15F;fill-rule:nonzero}
    .fil17 {fill:#DF958F;fill-rule:nonzero}
    .fil12 {fill:#DFF0F4;fill-rule:nonzero}
    .fil19 {fill:#FACCB3;fill-rule:nonzero}
    .fil14 {fill:#FCD6A2;fill-rule:nonzero}
    .fil16 {fill:#FFF8F5;fill-rule:nonzero}
    .fil13 {fill:white;fill-rule:nonzero}
    .fil21 {fill:#F25900;fill-rule:nonzero}
   ]]>
  </style>
 </defs>
 <g id="Capa_x0020_1">
  <metadata id="CorelCorpID_0Corel-Layer"/>
  <g id="_2219363715808">
   <path class="fil0" d="M367.12 328.3c3.26,13.25 0.69,26.06 -7.39,32.05 -5.91,4.38 -13.38,4.11 -19.37,3.86 -10.93,-0.41 -19.22,-4.4 -23.57,-6.92 -0.27,2.33 -0.82,5.5 -2.03,9.17 -2.6,7.83 -6.62,12.86 -7.88,14.42 -2.44,2.96 -5.28,5.39 -8.78,7.94 -14.48,10.54 -36,17.57 -57.95,19.76 -39.06,3.5 -77.24,-3.06 -107.54,-26.77l-10.07 -9.22c-7.91,1.31 -12.29,4.41 -21.51,4.41 -3.01,0 -9.09,-0.85 -13.74,-4.3 -8.52,-6.27 -10.79,-20.99 -5.92,-36.4 -2.46,-7.23 -5.36,-18.23 -5.39,-31.7 -0.03,-4.21 0.22,-20.66 13.39,-51.18 2.79,-6.43 6.35,-13.99 10.95,-22.36 4.57,-8.35 10.2,-17.52 17.05,-27.13 1.17,-1.64 2.38,-3.31 3.64,-4.98 0.95,1.34 2,2.63 3.06,3.89 5.01,5.88 11.11,10.81 17.93,14.45 7.06,3.78 14.64,6.18 22.44,7.58 1.76,0.33 3.51,0.6 5.29,0.82 2.13,0.27 4.27,0.47 6.43,0.58 2.76,0.16 5.53,0.22 8.29,0.13 0.6,0.03 1.23,0 1.84,-0.02 1.04,-0.03 2.08,-0.09 3.12,-0.2 0.38,-0.02 0.76,-0.05 1.15,-0.08 0.49,-0.05 1.01,-0.08 1.5,-0.14 7.45,-0.71 14.78,-2.19 21.84,-4.7 0.33,-0.11 0.63,-0.22 0.96,-0.36 2.27,-0.85 4.52,-1.75 6.73,-2.76 1.32,-0.6 2.63,-1.21 3.92,-1.89 6.92,-3.4 13.55,-7.47 20.01,-11.66 2.08,-1.34 4.16,-2.74 6.18,-4.16 0.49,0.22 1.01,0.46 1.51,0.66 9,4.07 19.13,8.15 30.35,11.9 3.09,1.04 6.3,2.05 9.55,3.04 1.04,0.3 2.08,0.63 3.12,0.9 0.99,0.3 1.95,0.58 2.9,0.85 2.33,0.66 4.63,1.26 6.9,1.86 0.33,0.06 0.69,0.17 1.02,0.25 1.97,0.49 3.91,0.96 5.83,1.4 0.08,0.02 0.13,0.02 0.21,0.02 0.17,0.06 0.33,0.11 0.5,0.11l0.02 0.03c0.85,0.19 1.7,0.38 2.52,0.55 2.38,0.54 4.74,1.04 7.04,1.5 1.01,0.19 1.99,0.38 2.98,0.55 1.89,0.38 3.72,0.71 5.56,0.99l0.02 0.02 0.03 0c2.79,0.49 5.5,0.9 8.13,1.29l0.03 0c0.03,0.05 0.05,0.08 0.08,0.14 0.05,0.13 0.14,0.27 0.19,0.38 0.55,1.01 1.07,2.02 1.59,3.01 5.42,10.32 10.15,19.4 14.07,26.93 10.48,20.15 12.56,24.42 14.09,30.66 1.97,8.13 3.56,21.89 -2.82,40.83z"/>
   <path class="fil0" d="M116.64 167.84l0 0.07c0,-0.02 -0.01,-0.07 -0.01,-0.12 0.01,0.03 0.01,0.04 0.01,0.05z"/>
   <path class="fil0" d="M325.65 230.06c-10.01,-1.28 -19.72,-5.16 -27.73,-11.28 -0.95,-0.72 -1.61,-1.44 -1.99,-2.58 -0.36,-1.12 -0.09,-2.33 0.44,-3.34 0.49,-0.94 1.58,-1.71 2.59,-1.99 0.95,-0.26 2.51,-0.2 3.33,0.43 0.84,0.65 1.7,1.26 2.57,1.85 2.73,1.85 5.62,3.45 8.64,4.77 0.05,0.02 0.09,0.04 0.11,0.06 0.06,0.03 0.13,0.04 0.19,0.07 0.02,0.01 0.04,0.02 0.05,0.02 0.01,0.02 0.01,0 0.01,0 0.15,0.07 0.31,0.13 0.46,0.18 0.4,0.17 0.8,0.32 1.21,0.47 1.02,0.37 2.04,0.72 3.09,1.04 0.24,0.07 0.46,0.13 0.69,0.19 5.06,3.57 6.19,7.09 6.34,10.11z"/>
   <path class="fil1" d="M248.06 232.59c-0.88,0.44 -0.88,0.88 -3.08,0.44 -17.11,-1.76 -42.57,-18 -52.22,-31.6 -1.76,-2.64 -2.64,-5.27 -5.71,-7.02 0.44,8.33 1.32,13.16 0,21.06 -1.32,10.97 -3.95,12.29 -4.83,17.12 4.83,-0.44 7.03,-5.27 8.34,-9.66 0.44,-1.32 0.88,-3.07 1.32,-4.39 1.75,1.76 0.44,6.15 0,8.34 -0.44,2.63 -1.32,4.83 -2.2,7.46 -2.19,5.27 -4.82,7.03 -9.65,9.66 1.31,10.53 10.09,14.92 15.8,20.19 1.64,-0.99 3.28,-2.95 6.38,-4.8 1.16,-0.69 2.22,-1.27 3.71,-1.79 1.63,-0.56 5.49,-1.89 8.27,-0.55 3.56,1.71 1.93,6.12 5.02,8.19 4.72,3.15 14.82,-2.91 18.7,-5.73 2.13,-1.54 4.08,-3.35 7.98,-5.4 2.54,-1.33 4.73,-2.14 6.22,-2.69 1.92,-0.71 4.96,-1.82 9.11,-2.59 3.98,-0.75 7.46,-1.03 10.76,0.15 0.8,0.29 1.59,0.79 2.41,1.6 3.07,3.07 4.39,6.58 3.95,12.29 2.63,0.44 4.82,0.88 6.58,2.19 2.2,1.32 2.63,2.64 5.27,3.08 -0.44,-11.85 -0.88,-23.26 1.75,-34.67 -17.11,0.87 -33.35,-2.2 -47.4,-7.91 -7.46,-2.63 -12.72,-5.26 -18.87,-9.21l-17.11 -10.97c5.26,7.46 18.87,17.99 27.64,22.38 3.96,2.19 7.9,3.07 11.86,4.83z"/>
   <path class="fil2" d="M222.29 253.6c-0.45,-0.39 -0.89,-0.77 -1.3,-1.14 -5.38,-4.74 -7.78,-7.6 -8.35,-8.86 -0.57,-1.25 0.69,-0.91 8.92,0.06 3.48,0.41 8.22,0.94 13.53,1.37 -1.45,1.5 -2.71,2.94 -5.03,4.24 -2.89,1.92 -5.31,2.91 -7.77,4.33z"/>
   <path class="fil1" d="M127.8 352.4c5.27,1.32 7.9,3.95 14.93,4.83 13.6,1.75 39.49,0 48.71,-8.34 -0.44,-1.76 -1.32,-2.19 -2.2,-3.95 -2.63,-3.95 -3.95,-9.22 -3.95,-14.04 4.39,5.26 3.51,11.41 15.36,18.87 7.03,4.39 18.88,2.19 22.39,-7.46 1.75,-5.27 4.38,-12.29 3.07,-18.43 -2.19,-1.32 -4.39,-1.32 -7.02,-1.76 1.32,3.07 0,7.02 -0.88,10.09 -1.75,5.27 -3.51,4.83 -4.39,7.03 3.07,0.87 3.51,0.87 6.15,-0.45 -0.44,1.76 -1.76,3.52 -3.08,3.96 -3.95,1.75 -10.09,-3.51 -12.28,-7.9 -3.52,-6.15 -4.39,-14.05 -5.71,-21.95 -1.32,-10.53 2.19,-26.77 4.83,-36.86 0.44,-2.64 2.63,-8.78 3.07,-10.1 -4.39,1.32 -8.78,3.07 -11.41,5.71 -1.32,1.31 -3.07,2.63 -4.39,4.39 -0.88,1.31 -2.63,4.38 -3.95,4.38 0,-1.75 1.32,-4.38 2.19,-6.14 -3.07,0 -16.23,2.19 -19.74,3.07 -12.73,3.52 -19.75,7.46 -29.41,15.8 -3.07,2.63 -9.66,10.97 -10.53,10.97 -0.44,-2.19 3.07,-7.02 3.95,-8.77l5.7 -7.46c-5.26,0.44 -12.73,2.63 -17.99,3.95 -11.41,3.07 -11.85,5.26 -15.36,6.14 3.95,-9.65 28.53,-17.56 39.94,-17.99 -1.32,-2.2 -4.83,-3.95 -7.9,-4.83 -5.27,-2.2 -8.34,-1.76 -9.22,-3.07 8.34,-2.2 20.63,-3.51 25.89,3.07 0.44,0 7.46,-3.51 8.78,-3.95 2.2,-1.76 2.2,-7.46 2.63,-10.1 0.88,-7.02 1.76,-16.23 1.76,-23.26 0,-5.26 -3.95,-15.36 -6.14,-19.31 -5.27,-9.21 -10.54,-11.41 -11.85,-13.16 5.26,-0.44 10.09,2.63 13.6,4.39 -1.32,-3.08 -7.9,-9.22 -10.53,-10.98 -9.22,-7.02 -18.87,-5.7 -25.9,0.88 -13.16,13.61 -21.06,37.31 -29.84,55.3 -3.07,6.14 -6.14,13.17 -8.78,19.75 -6.14,15.8 -6.14,32.04 -3.51,49.59 1.76,-2.19 5.71,-14.48 9.22,-14.48 0,1.32 -5.71,14.05 -6.58,24.58 -0.88,8.34 0,20.19 3.07,27.65 4.39,8.77 17.99,6.14 24.14,5.7 8.77,-0.87 17.55,-2.63 24.57,-7.02 -2.19,-1.32 -4.38,-2.19 -6.58,-3.51 -1.32,-0.88 -3.95,-3.07 -4.83,-4.83z"/>
   <path class="fil2" d="M87.43 334.41c-0.88,8.34 0,20.19 3.07,27.65 4.39,8.77 17.99,6.14 24.13,5.7 8.7,-0.87 17.39,-2.6 24.38,-6.89 -4.06,0.22 -12.85,2.48 -19.93,3.37 -7.77,0.97 -13.49,0.28 -17.61,-1.21 -4.11,-1.48 -6.62,-3.77 -8.34,-10.8 -1.71,-7.03 -2.63,-18.8 -2.57,-25.95 0.03,-4.32 0.42,-6.95 0.8,-8.57 -1.62,4.81 -3.47,11.07 -3.93,16.7zm34.57 -128.9c-3.84,6.69 -8.56,15.42 -12.87,24.52 -5.6,11.83 -10.51,24.29 -13.94,36.52 -3.43,12.24 -5.38,24.24 -6.4,32.07 -1.03,7.83 -1.15,11.49 -0.86,14.46 0.13,1.38 0.35,2.61 0.61,3.57 -1.56,3.23 -2.9,6.61 -3.75,7.66 -2.63,-17.55 -2.63,-33.79 3.51,-49.59 2.64,-6.58 5.71,-13.61 8.78,-19.75 7.63,-15.64 14.59,-35.57 24.92,-49.46z"/>
   <path class="fil1" d="M316.08 233.9l0 -0.43c0.88,10.97 -8.78,21.06 -16.24,24.13 0.44,0.44 0,0 0.88,0.44 1.75,0 2.19,-1.31 5.7,-1.75 -0.43,3.07 -5.26,7.46 -9.21,8.33l0 3.95c2.63,0.44 8.34,-0.43 10.09,-1.75 0.88,-0.44 4.39,-4.83 5.27,-6.14 3.95,-5.71 2.63,-10.54 12.73,-10.54l-3.52 -7.02c-0.43,0.88 -1.31,2.19 -1.75,3.07 -0.88,1.32 -0.44,2.2 -1.32,3.07l-0.43 -1.75c-0.45,-0.44 0,-1.76 0,-2.2l1.75 -10.97c0.44,-4.83 0,-6.14 -6.58,-9.65 -0.44,3.07 0,4.82 0,7.9 0,3.07 -0.88,4.39 -1.32,7.02 1.76,-0.44 0.88,0.44 1.76,-1.32 0.44,-0.44 0.87,-0.87 0.87,-1.31 0,-0.44 0.44,-1.32 0.44,-1.76 0,-0.44 0.44,-0.44 0.44,-0.88 0,0 0.44,0 0.44,-0.44z"/>
   <path class="fil1" d="M305.55 362.93c0,0 -3.11,11.88 -13.61,18.88 -13.16,8.77 -30.28,14.04 -49.16,15.79 -32.03,3.08 -53.98,2.2 -82.5,-11.4 -3.96,-1.75 -7.46,-3.52 -10.54,-5.71 -1.75,-0.87 -8.77,-6.14 -9.21,-6.58l14.04 4.38c28.1,11.85 68.46,14.04 97.43,3.95 5.27,-2.2 8.78,-3.5 11.86,-7.46 -6.15,0.44 -10.1,2.2 -19.75,2.2 -11.86,0 -27.21,-1.32 -38.19,-6.15 -3.08,-1.75 -12.29,-6.58 -14.04,-8.34 1.75,-1.31 4.83,-1.75 6.58,-3.06 3.07,-1.77 3.96,0 7.9,0.44 6.15,0.42 11.85,-1.33 15.37,-4.4 7.9,-7.02 7.01,-13.16 8.77,-20.62 0.88,-3.08 0.88,-5.71 1.32,-8.79 1.53,0.93 3.44,1.92 5.71,2.77 1.77,0.66 3.42,1.11 4.87,1.42 0.04,8.4 5.2,15.81 12.74,18.48 10.1,3.57 18.62,-3.45 18.97,-3.74 4.73,2.01 9.46,4.04 14.19,6.06 -1.13,2.35 -2.25,4.7 -3.38,7.05 1.01,-0.05 2.91,-0.28 4.91,-1.45 2.76,-1.61 3.98,-4.01 4.4,-4.93 2,0.48 4.24,0.92 6.69,1.23 2.68,0.35 5.17,0.5 7.39,0.53 -0.44,2.39 -1.23,5.7 -2.76,9.45z"/>
   <path class="fil1" d="M306.83 348.83c-3.49,0.06 -7.29,-0.12 -11.06,-0.52 0.96,-1.19 1.77,-2.34 2.32,-3.37 0.87,-1.76 1.75,-4.82 2.63,-6.15 1.3,1.31 5.19,8.21 6.11,10.04z"/>
   <path class="fil2" d="M304.34 366.61c0.41,-1.21 0.81,-2.43 1.21,-3.68 1.02,-3.22 1.94,-6.37 2.76,-9.45 -3.35,-0.2 -6.7,-0.39 -10.05,-0.59 -10.16,17.46 -21.02,24.45 -29.38,27.55 -6.59,2.43 -29.77,9.3 -42.92,12.28 -6.8,1.55 0.17,1.55 10.63,0.52 10.46,-1.03 24.4,-3.09 35.55,-6.57 11.15,-3.49 19.49,-8.41 25.32,-13.15 2.84,-2.31 5.08,-4.58 6.88,-6.91z"/>
   <path class="fil2" d="M155.91 273.78c0.44,0 7.46,-3.52 8.78,-3.95 1.8,-3.39 7.02,-14.26 4.25,-27.89 -1.66,-8.13 -5.49,-13.9 -7.93,-17.02 -1.74,4.25 -4.6,9.98 -9.43,15.71 -12.97,15.39 -33.28,22.72 -32.6,24.1 0.02,0.04 0.1,0.12 0.29,0.16 0.86,0.14 3.32,-0.49 8.35,-0.18 5.03,0.32 12.63,1.58 17.68,3.18 2.25,0.71 3.99,1.48 5.38,2.27 2.08,0.77 3.89,1.93 5.23,3.62zm-18.37 6.25c3.62,-0.82 6.96,-1.32 9.6,-1.43 -1.32,-2.19 -4.83,-3.94 -7.9,-4.82 -5.27,-2.2 -8.34,-1.76 -9.22,-3.07 0.82,-0.22 1.69,-0.43 2.58,-0.62 -1.5,0.08 -3.1,0.28 -4.87,0.63 -6,1.17 -13.95,3.97 -16.98,5.14 -3.03,1.17 -1.14,0.71 2.86,0.57 4,-0.14 10.12,0.03 14.61,0.74 4.48,0.72 7.34,1.98 8.94,2.69l0.38 0.17zm-3.92 16.02c0.52,-0.85 0.98,-1.59 1.23,-2.09l5.7 -7.46c-5.26,0.44 -12.72,2.64 -17.99,3.95 -8.76,2.36 -11.06,4.2 -13.24,5.33 -1.76,1.72 -2.77,3.17 -3.14,3.86 -0.57,1.06 0.4,0.25 3.06,-0.77 2.66,-1.03 7,-2.29 11.09,-2.83 4.09,-0.55 7.91,-0.37 10.31,-0.18 1.36,0.12 2.26,0.24 2.98,0.19zm72.68 -25.99c-0.28,0.36 -0.56,0.74 -0.84,1.11 -4.23,5.75 -8.29,13.23 -10.97,21.27 -2.69,8.03 -4,16.6 -4.57,21.49 -0.57,4.88 -0.4,6.08 -1.18,4.31 -0.77,-1.77 -2.48,-6.51 -3.23,-11.86 -0.74,-5.34 -0.51,-11.29 -0.34,-14.95 0.18,-3.65 0.29,-5.02 -0.85,-2.8 -1.15,2.23 -3.55,8.06 -4.69,13.26 -1.14,5.21 -1.03,9.78 -0.94,12.46 0.08,2.69 0.14,3.49 -1.66,3.69 -1.8,0.2 -5.46,-0.2 -9.83,-0.11 -4.37,0.08 -9.46,0.66 -15.32,1.54 -5.86,0.89 -12.49,2.09 -17.98,3.6 -5.48,1.51 -9.83,3.34 -12.34,4.54 -2.52,1.21 -3.2,1.77 -2.09,-1.57 1.12,-3.34 4.03,-10.6 7.12,-16.35 1.41,-2.61 2.85,-4.91 4.3,-6.99l0.01 0.04c0.87,0 7.46,-8.34 10.53,-10.97 9.65,-8.34 16.68,-12.29 29.41,-15.8 3.5,-0.88 16.67,-3.07 19.74,-3.07 -0.88,1.76 -2.19,4.39 -2.19,6.14 1.31,0 3.07,-3.07 3.95,-4.38 1.32,-1.76 3.07,-3.08 4.39,-4.4 2.63,-2.63 7.02,-4.38 11.41,-5.7 -0.25,0.76 -1.09,3.13 -1.84,5.5z"/>
   <path class="fil1" d="M354.36 309.75c0,1.07 4.65,11.43 5.37,20.01 0.7,6.8 0,16.44 -2.51,22.52 -3.58,7.15 -14.65,4.99 -19.66,4.65 -7.14,-0.72 -14.3,-2.15 -20.01,-5.72 1.78,-1.08 3.57,-1.8 5.36,-2.86 1.07,-0.71 3.22,-2.51 3.93,-3.93 -4.28,1.06 -6.44,3.22 -12.15,3.93 -2.26,0.29 -4.95,0.46 -7.86,0.48 -3.48,0.06 -7.29,-0.12 -11.06,-0.52 -1.94,-0.21 -3.89,-0.48 -5.76,-0.83 -6.24,-1.14 -11.82,-3.06 -15,-5.93 0.36,-1.42 1.08,-1.78 1.8,-3.21 2.14,-3.22 3.21,-7.5 3.21,-11.44 -3.57,4.29 -2.85,9.3 -12.51,15.37 -5.71,3.57 -15.36,1.79 -18.21,-6.07 -0.54,-1.6 -1.16,-3.39 -1.69,-5.27 -0.91,-3.18 -1.5,-6.6 -0.83,-9.75 1.8,-1.06 3.58,-1.06 5.73,-1.42 -1.08,2.5 0,5.71 0.72,8.22 0.57,1.74 1.15,2.72 1.69,3.38 0.78,0.97 1.45,1.27 1.88,2.33 -2.51,0.72 -2.87,0.72 -5.01,-0.36 0.36,1.44 1.44,2.87 2.5,3.23 3.23,1.42 8.22,-2.87 10.01,-6.44 0.73,-1.3 1.32,-2.68 1.82,-4.14 0.26,-0.74 0.48,-1.52 0.69,-2.3 0.97,-3.59 1.48,-7.5 2.14,-11.44 1.07,-8.56 -1.8,-21.78 -3.93,-30.01 -0.14,-0.82 -0.48,-2.08 -0.89,-3.36 -0.64,-2.06 -1.4,-4.19 -1.62,-4.86 3.57,1.08 7.15,2.5 9.29,4.65 0.29,0.28 0.6,0.57 0.91,0.84 0.9,0.82 1.88,1.68 2.66,2.73 0.72,1.08 2.16,3.57 3.22,3.57 0,-1.43 -1.06,-3.57 -1.78,-5 1.8,0 7.92,0.94 12.25,1.72 1.65,0.31 3.03,0.6 3.83,0.79 10.36,2.85 16.08,6.07 23.94,12.86 2.5,2.15 7.86,8.93 8.58,8.93 0.36,-1.78 -2.5,-5.71 -3.21,-7.14l-4.65 -6.09c4.29,0.36 10.36,2.16 14.65,3.23 9.29,2.5 9.65,4.29 12.51,4.99 -3.22,-7.86 -23.23,-14.29 -32.53,-14.64 1.08,-1.8 3.94,-3.22 6.45,-3.93 4.28,-1.8 6.78,-1.44 7.5,-2.5 -6.8,-1.79 -16.8,-2.87 -21.09,2.5 -0.36,0 -6.08,-2.86 -7.14,-3.22 -1.8,-1.43 -1.8,-6.08 -2.15,-8.22 -0.72,-5.72 -1.42,-13.22 -1.42,-18.95 0,-4.29 3.21,-12.51 4.99,-15.72 4.29,-7.5 8.58,-9.28 9.65,-10.72 -4.29,-0.35 -8.22,2.14 -11.07,3.58 1.06,-2.5 6.42,-7.51 8.58,-8.94 7.5,-5.71 15.36,-4.65 21.07,0.72 10.73,11.07 17.16,30.38 24.3,45.03 2.51,5 5.01,10.71 7.16,16.08 5,12.87 5,26.09 2.85,40.38 -1.43,-1.78 -4.64,-11.79 -7.5,-11.79z"/>
   <path class="fil2" d="M356.51 316.17c0.31,1.31 0.63,3.45 0.66,6.98 0.04,5.82 -0.7,15.4 -2.1,21.13 -1.39,5.72 -3.44,7.58 -6.79,8.79 -3.35,1.21 -8.01,1.77 -14.34,0.98 -5.76,-0.72 -12.92,-2.56 -16.22,-2.74 5.69,3.5 12.76,4.91 19.84,5.61 5,0.36 16.08,2.5 19.66,-4.64 2.5,-6.08 3.21,-15.73 2.5,-22.52 -0.38,-4.58 -1.89,-9.68 -3.21,-13.59zm-24.95 -91.37c8.42,11.31 14.09,27.54 20.3,40.28 2.5,5 5,10.72 7.14,16.08 5.01,12.86 5.01,26.09 2.86,40.38 -0.68,-0.85 -1.78,-3.61 -3.05,-6.24 0.21,-0.78 0.39,-1.78 0.5,-2.9 0.23,-2.42 0.14,-5.4 -0.7,-11.78 -0.84,-6.38 -2.42,-16.15 -5.21,-26.11 -2.79,-9.96 -6.8,-20.11 -11.36,-29.74 -3.51,-7.41 -7.35,-14.52 -10.48,-19.97z"/>
   <path class="fil2" d="M322.1 298.53c0.59,0.04 1.32,-0.06 2.42,-0.15 1.96,-0.17 5.08,-0.31 8.4,0.14 3.33,0.44 6.87,1.46 9.03,2.3 2.17,0.84 2.96,1.49 2.5,0.63 -0.31,-0.56 -1.13,-1.74 -2.56,-3.14 -1.78,-0.92 -3.64,-2.42 -10.78,-4.34 -4.29,-1.07 -10.36,-2.86 -14.65,-3.21l4.64 6.07c0.2,0.4 0.58,1 1,1.7zm-59.18 -21.16c-0.61,-1.94 -1.29,-3.87 -1.5,-4.48 3.57,1.07 7.15,2.5 9.29,4.64 1.07,1.07 2.5,2.15 3.58,3.57 0.71,1.08 2.14,3.58 3.21,3.58 0,-1.43 -1.07,-3.58 -1.79,-5 2.51,0 13.23,1.78 16.09,2.5 10.36,2.86 16.08,6.08 23.94,12.86 2.5,2.15 7.87,8.94 8.58,8.94l0.01 -0.03c1.18,1.69 2.35,3.56 3.5,5.69 2.51,4.68 4.89,10.59 5.79,13.31 0.91,2.73 0.35,2.26 -1.7,1.28 -2.04,-0.98 -5.58,-2.46 -10.05,-3.7 -4.47,-1.23 -9.87,-2.21 -14.64,-2.93 -4.77,-0.72 -8.91,-1.19 -12.47,-1.26 -3.56,-0.07 -6.54,0.26 -8,0.1 -1.47,-0.17 -1.42,-0.82 -1.36,-3.01 0.07,-2.18 0.17,-5.91 -0.76,-10.14 -0.93,-4.24 -2.89,-8.98 -3.82,-10.8 -0.93,-1.82 -0.84,-0.7 -0.7,2.28 0.14,2.98 0.33,7.82 -0.28,12.17 -0.6,4.35 -2,8.22 -2.63,9.66 -0.63,1.44 -0.48,0.46 -0.95,-3.51 -0.47,-3.98 -1.54,-10.97 -3.72,-17.51 -2.19,-6.53 -5.5,-12.63 -8.94,-17.31 -0.23,-0.31 -0.45,-0.61 -0.68,-0.9z"/>
   <path class="fil0" d="M182.87 254.88c-0.72,-4.63 -0.84,-9.33 -0.03,-13.09 1.38,-7.12 3.06,-0.11 -0.73,-14.65 -0.89,-3.34 -1.5,-6.56 -1.85,-9.68 4.02,-2.23 10.95,-3.23 19.19,-3.23l0 0c4.09,0 8.51,0.24 13.04,0.72 0.41,0.72 0.78,1.33 1.08,1.81 5.25,2.23 24.85,11.28 35.87,33.81 0.65,1.33 1.24,2.65 1.78,3.97 -2.49,1.68 -4.8,3.07 -6.39,4.03l0 0c-9.55,5.76 -18.62,7.54 -23.99,8.16l0 0c-0.43,-0.05 -1.03,-0.19 -1.67,-0.52l0 0c-1.53,-0.8 -2.27,-2.22 -2.82,-3.31l0 0c-1.12,-2.22 -0.83,-3.29 -2.02,-4.18l0 0c-0.26,-0.19 -0.71,-0.46 -1.76,-0.66l0 0c-0.66,-0.12 -3.6,-0.61 -7.97,1.28l0 0c-1.86,0.8 -3.13,1.67 -4.75,2.77l0 0c-1.73,1.17 -3.09,2.28 -4.05,3.13l0 0c-2.74,-1.32 -4.8,-2.74 -6.16,-3.79l0 0c-2.05,-1.57 -4.72,-3.62 -6.77,-6.57z"/>
   <path class="fil3" d="M208.42 219.6c-0.96,-2.44 -1.75,-3.15 -2.65,-5.19 -2.17,-0.12 -4.28,-0.18 -6.32,-0.18l0 0 -0.35 0c1.13,3.15 2.64,4.4 4.13,6.92l5.19 -1.55z"/>
   <path class="fil4" d="M199.93 222.87c-0.47,-2.95 -1.28,-5.82 -1.75,-8.64 -4.37,0.06 -8.33,0.41 -11.64,1.09 0.3,3.42 0.98,7.55 2.04,13.05l11.35 -5.5z"/>
   <path class="fil5" d="M186.54 215.32c0.3,3.42 0.98,7.55 2.04,13.05l4.31 -2.09c-0.15,-0.42 -0.33,-0.94 -0.56,-1.59 -0.75,-2.08 -1.97,-5.5 -2.75,-9.88 -1.06,0.15 -2.08,0.32 -3.04,0.51z"/>
   <path class="fil5" d="M244.93 258.51c-2.02,-6.95 -4.51,-11.47 -10.69,-18.83 -3.38,-3.82 -7.22,-6.92 -10.62,-9.51 -1.81,-1.11 -3.98,-2.44 -6.31,-3.12 -2.1,-1.04 -3.98,-2.44 -6.84,-0.21 1.8,1.11 3.25,2 4.84,3.47 9.65,8.42 16.75,20.03 21.15,32.45 2.69,-1.09 5.51,-2.46 8.37,-4.19l0 0 0.1 -0.06z"/>
   <path class="fil5" d="M235.14 263.27c-4.33,-12.39 -13.48,-26.7 -22.32,-31.75 -2.24,-1.62 -4.26,-3.61 -6.53,-2.76 -1.98,0.78 -6.22,2.42 -7.76,3.72 3.91,2.15 5.37,1.8 10.28,6.8 6.48,6.41 12,16.94 15.55,26.94 3.06,-0.54 6.75,-1.43 10.78,-2.95z"/>
   <path class="fil6" d="M209.25 258.02c-3.13,-4.46 -6.68,-8.02 -9.58,-9.13 -5.01,-1.58 -5.35,3.44 -4.44,7.24 0.66,2.78 1.43,5.3 2.33,7.65 -0.69,0.54 -1.28,1.03 -1.76,1.46l0 0c-2.07,-1 -3.74,-2.04 -5.03,-2.95 -0.83,-2.26 -1.46,-4.46 -1.81,-6.51 -0.81,-5.99 -2.02,-16.2 2.96,-18.63 10.91,-4.78 23.57,11.97 27.63,21.19 1.01,2.25 2.08,5.12 3.05,8.16 -0.62,0.09 -1.21,0.17 -1.76,0.23l0 0c-0.43,-0.05 -1.03,-0.19 -1.67,-0.52l0 0c-1.53,-0.8 -2.27,-2.22 -2.82,-3.31l0 0c-1.12,-2.22 -0.83,-3.29 -2.02,-4.18l0 0c-0.26,-0.19 -0.71,-0.46 -1.76,-0.66l0 0c-0.39,-0.07 -1.55,-0.27 -3.32,-0.04z"/>
   <path class="fil7" d="M189.42 239.84c-1.95,4.13 -1.09,11.3 -0.45,15.94 0.34,2.05 0.97,4.25 1.8,6.51 0.92,0.64 2.03,1.36 3.33,2.08 -0.31,-0.77 -0.61,-1.52 -0.89,-2.27 -2.21,-5.77 -3.56,-10.92 -3.99,-14.98 -0.31,-2.93 -0.14,-5.29 0.2,-7.28z"/>
   <path class="fil3" d="M202.51 260.39c-0.66,-1.71 -1.18,-3.32 -1.52,-4.71 -0.49,-2.05 0.47,-3.21 -0.98,-4.09 -0.79,-0.74 -2.53,-1.56 -3.42,-0.11 -0.77,1.55 0.51,6.02 2.72,11l0.54 -0.37 0 0c0.94,-0.64 1.77,-1.2 2.66,-1.72z"/>
   <path class="fil0" d="M272.54 271.59c2.99,1.62 5.98,3.24 8.97,4.86 3.51,1.62 14.07,7.87 17.07,7.88 8.92,0.31 20.46,-7.35 25.56,-13.82 3.32,-4.61 6.38,-8.49 9.5,-14.03 3.45,-5.69 6.38,-15.22 5.81,-21.88 -0.43,-6.31 -2.59,-0.41 2.15,-12.62 11.23,-28.49 -3.67,-49.82 -18.02,-72.62 -0.69,-1.1 -0.9,-2.02 -1.5,-3.37 -0.36,-0.8 -0.53,-1.33 -0.78,-1.93 -0.79,5.45 -0.77,10.03 -0.51,13.63 0.85,11.47 4.24,13.25 3.96,25.31 -0.3,12.96 -4.45,20.48 -6.56,23.74 -0.83,1.29 -1.6,2.3 -2.14,2.98 -4.68,1.38 -22.22,7.18 -33.9,25.55 -9.83,15.43 -9.85,30.83 -9.61,36.32z"/>
   <path class="fil3" d="M320.11 212.71c1.74,-3.26 2.61,-2.65 5.03,-9.29 4.29,-10.97 3.08,-18.15 3.71,-28.83 3.57,8.92 4.06,20.3 1.18,30.41 -1.67,6.09 -3.56,6.77 -5.69,9.6l-4.23 -1.89z"/>
   <path class="fil4" d="M326.95 216.43c0.93,-3.29 2.34,-6.39 2.94,-9.53 1.19,-4.02 3.17,-13.91 3.14,-17.56 0.17,-2.73 -0.22,-5.4 -0.13,-7.89 0.93,1.19 3.24,6.83 3.91,8.76 3.81,13.49 4.48,15.42 -0.82,32.17l-9.04 -5.95z"/>
   <path class="fil8" d="M338.47 196.22c2.21,8.56 1.91,12.26 -2.48,26.15l-3.43 -2.25c0.17,-0.35 0.38,-0.78 0.64,-1.32 1.26,-2.55 3.7,-7.53 4.69,-14.16 0.39,-2.63 0.56,-5.53 0.58,-8.42z"/>
   <path class="fil5" d="M281.46 252.64c4.44,-12.87 5.87,-16.81 14.69,-25.22 3.27,-2.96 6.83,-5.25 9.98,-7.13 1.65,-0.77 3.63,-1.7 5.67,-2.05 1.89,-0.68 3.63,-1.7 5.82,0.53 -1.65,0.77 -2.97,1.39 -4.47,2.5 -11.72,8.15 -20.38,21.38 -25.17,35.24l-6.52 -3.87z"/>
   <path class="fil5" d="M289.57 257.4c1.94,-11.3 14.86,-30.2 25.57,-34.82 2.07,-1.17 3.98,-2.68 5.82,-1.71 1.59,0.88 5.01,2.74 6.18,4.03 -3.54,1.46 -4.74,1 -9.42,4.82 -8.85,7.01 -16.91,21.58 -20.2,32.09l-7.95 -4.41z"/>
   <path class="fil6" d="M327.45 245.73c1.17,-3.19 1.41,-7.58 -3,-6.74 -5.73,1.47 -15.47,13.17 -17.39,21.4 -0.75,2.8 -0.74,7.28 3.16,7.08 2.19,-0.01 5.03,-2.57 6.89,-4.66 4.56,-4.99 7.74,-9.95 10.34,-17.08zm-24.25 31.96c-2.7,0.65 -4.29,-2.47 -4.59,-5.39 -0.45,-3.25 -0.4,-4.9 0.38,-8.53 1.17,-5.44 4.79,-13.86 7.64,-18.66 4.4,-7.56 16.88,-20.75 25.61,-15.48 3.96,2.63 1.87,11.35 0.55,16.45 -2.21,7.56 -9.2,16.95 -14.35,22.83 -3.21,3.54 -9.36,7.65 -13.95,4.51 -3.09,-2.02 -1.84,-5.46 -2.68,-6.9 -1.5,1.11 -1.61,4.43 -1.19,6.27 0.33,2.08 1.02,3.19 2.58,4.9z"/>
   <path class="fil7" d="M334.07 232.23c1.23,3.78 -0.26,9.9 -1.28,13.85 -2.21,7.56 -9.2,16.95 -14.36,22.83 -3.12,3.45 -9.02,7.43 -13.57,4.74 1.6,0.08 3.71,0.04 5.81,-0.77 2.98,-1.14 5.93,-3.85 9.03,-7.82 3.1,-3.96 6.37,-9.18 8.84,-13.94 2.47,-4.77 4.15,-9.09 4.94,-12.56 0.57,-2.51 0.68,-4.58 0.59,-6.33z"/>
   <path class="fil3" d="M285.49 269.29c-0.87,-0.61 -5.25,-2.83 -5.64,-3.26 -0.54,-0.77 -0.15,-4.82 -0.03,-5.89 0.96,0.36 5.97,3.1 6.18,4.02 -0.12,1.08 -0.18,0.49 -0.33,2.4 -0.11,1.07 -0.05,1.65 -0.18,2.73z"/>
   <polygon class="fil3" points="288.07,265.23 295.39,269.13 295.04,274.59 288.04,270.54 "/>
   <path class="fil3" d="M309.49 264.96c-0.3,-0.68 -0.36,-1.26 -0.24,-2.34 0.99,-0.46 1.05,0.12 2.73,-1.48 3.78,-3.6 8.84,-11.48 10.64,-16.4 0.63,-1.72 -0.06,-2.82 1.26,-3.44 0.75,-0.56 2.31,-1.08 2.91,0.26 1.32,3.86 -12.32,24.73 -17.3,23.4z"/>
   <path class="fil9" d="M202.65 15.99c-0.36,-0.13 -0.8,-0.25 0,0z"/>
   <path class="fil9" d="M170.68 38.1c0,0.05 -0.01,0.1 -0.02,0.15 -0.02,0.17 -0.04,0.35 -0.06,0.52 0.01,0.08 0.04,-0.03 0.08,-0.67z"/>
   <path class="fil9" d="M202.26 50.04c0.01,0 0.01,-0.01 0.01,-0.02 0,0 0,0 0,0 0.01,-0.06 0.03,-0.16 -0.01,0.02z"/>
   <path class="fil9" d="M203.3 46.54c0.01,-0.08 0.01,0.3 0.01,0.44 -0.01,-0.15 -0.02,-0.37 -0.01,-0.44zm175.76 130.2c-0.03,0.26 -0.05,0.54 -0.08,0.81 0,0 0,0.04 -0.02,0.11 -0.01,0.03 -0.01,0.06 -0.01,0.09 -0.01,0.08 -0.03,0.19 -0.04,0.29l0 0.03c0,0.01 -0.02,0.04 -0.02,0.05 -0.01,0.14 -0.04,0.28 -0.05,0.4 -0.68,4.33 -1.7,8.61 -3.16,12.76 -0.25,0.73 -0.52,1.46 -0.81,2.19 -0.06,0.15 -0.12,0.3 -0.18,0.45l-0.02 0.02c0,0 0,0.01 -0.01,0.03 0,0.01 0,0.02 -0.01,0.04l0 0.03c-0.02,0.02 -0.02,0.04 -0.03,0.05 0,0.01 -0.01,0.01 -0.01,0.03 -0.02,0.05 -0.05,0.11 -0.06,0.15 -0.01,0.03 -0.01,0.06 -0.03,0.07 -0.02,0.05 -0.04,0.11 -0.07,0.16 -0.01,0.04 -0.02,0.07 -0.04,0.1 -0.04,0.1 -0.08,0.18 -0.12,0.28 -0.71,1.57 -1.46,3.1 -2.29,4.59 -0.88,1.57 -1.83,3.1 -2.87,4.58 -0.26,0.38 -0.54,0.76 -0.81,1.13 -0.09,0.12 -0.18,0.25 -0.28,0.37 -0.01,0.03 -0.04,0.06 -0.07,0.08 -0.01,0.03 -0.01,0.05 -0.03,0.06l-0.01 0.01c-0.01,0.02 -0.03,0.03 -0.03,0.05 -0.57,0.69 -1.16,1.37 -1.75,2.05 -1.29,1.45 -2.67,2.8 -4.15,4.07 -0.34,0.3 -0.7,0.61 -1.07,0.9 -0.14,0.11 -0.29,0.21 -0.43,0.33 0.11,-0.1 0.22,-0.2 0.26,-0.25 -0.06,0.04 -0.15,0.13 -0.36,0.33 -0.01,0 -0.01,0.01 -0.03,0.01 -0.84,0.64 -1.71,1.24 -2.6,1.81 -1.1,0.69 -2.21,1.34 -3.34,1.94 -0.55,0.29 -1.11,0.57 -1.67,0.83 -0.25,0.13 -0.5,0.23 -0.76,0.35 -0.2,0.09 -1.49,0.77 -0.47,0.22 -1.07,0.58 -2.38,0.91 -3.54,1.28 -1.15,0.37 -2.29,0.69 -3.45,0.97 -1.01,0.23 -2.01,0.45 -3.03,0.63 -0.49,0.08 -0.97,0.15 -1.45,0.23 -0.09,0 -0.17,0.02 -0.25,0.03 -0.03,0.01 -0.05,0.01 -0.08,0.01 -0.22,0.02 -0.45,0.05 -0.66,0.07 -1.77,0.18 -3.56,0.28 -5.34,0.29 -1.29,0.02 -2.58,-0.02 -3.88,-0.11 -0.42,-0.02 -0.87,-0.07 -1.3,-0.09 -0.56,-0.06 -1.14,-0.11 -1.71,-0.18 -0.01,0 -0.06,0 -0.15,-0.02 0,0 -0.02,0 -0.07,-0.01 -0.02,0 -0.05,0 -0.09,-0.01l-0.06 0c-0.24,-0.04 -0.59,-0.09 -0.66,-0.1 -2.09,-0.33 -4.16,-0.79 -6.21,-1.38 -0.23,-0.05 -0.45,-0.12 -0.69,-0.19 -1.04,-0.32 -2.06,-0.67 -3.09,-1.04 -0.41,-0.15 -0.81,-0.3 -1.21,-0.47 -0.15,-0.05 -0.3,-0.11 -0.45,-0.17 0,0 0,0.01 -0.02,0 -0.01,0 -0.03,-0.02 -0.05,-0.03 -0.06,-0.03 -0.13,-0.05 -0.18,-0.07 -0.03,-0.02 -0.07,-0.04 -0.11,-0.06 -2.94,-1.29 -5.76,-2.84 -8.43,-4.63 17.26,-16.49 20.24,-30 20.39,-38.29 0.94,-52.97 -110.17,-101.18 -162.29,-85.85 0.2,-0.94 0.42,-1.88 0.67,-2.81 0.66,-2.47 1.58,-5.14 2.51,-7.37 0.98,-2.31 2.17,-4.65 3.48,-6.92 1.38,-2.4 2.91,-4.74 4.5,-6.92 0.08,0.06 0.15,0.12 0.23,0.18 1.03,0.75 2.31,-0.24 2.41,-1.33 1.06,0.49 2.15,0.9 3.27,1.21 1,0.28 2.02,0.47 3.06,0.57 2.88,0.27 5.85,-0.11 8.55,-1.16 3.26,-1.27 6.13,-3.57 8.03,-6.52 1.5,-2.35 2.44,-5.04 2.85,-7.8 0.01,-0.13 0.07,-0.48 0.01,-0.12 0,-0.02 0.01,-0.06 0.01,-0.08 0.02,-0.14 0.04,-0.28 0.06,-0.41 0.02,-0.14 0.04,-0.28 0.06,-0.42 0.03,-0.26 0.06,-0.52 0.08,-0.79 0,-0.06 0.01,-0.13 0.02,-0.2 0,-0.09 0.01,-0.19 0.02,-0.28 -0.01,0.07 -0.01,0.14 -0.02,0.2 0.01,-0.11 0.02,-0.22 0.02,-0.34 0.01,-0.12 0.01,-0.25 0.02,-0.37 0,-0.12 0,-0.24 0,-0.36 0,-0.02 0,-0.05 0,-0.09 0,0.01 0,0 0,-0.03 0,-0.06 0,-0.12 0.01,-0.18 0.01,-0.46 0.01,-0.91 -0.01,-1.37 0,-0.07 0,-0.15 -0.01,-0.22 0,-0.11 -0.01,-0.22 -0.01,-0.34 0,-0.01 0,0.03 0,0.07 0,-0.06 0,-0.12 -0.01,-0.17 -0.01,-0.17 -0.04,-0.34 -0.06,-0.51 -0.02,-0.1 -0.03,-0.29 -0.07,-0.44 -0.02,-0.15 -0.06,-0.31 -0.16,-0.26 -0.13,0.06 -0.1,0.57 -0.08,0.73 0,0.05 0,0.1 0,0.16 0,0.05 0,0.09 0,0.14 0,-0.05 0,-0.08 0,-0.1 0,0.03 0,0.06 0,0.09 0,0.07 -0.01,0.13 -0.01,0.19 0,0.1 0,0.56 0,0.11 0,0.12 0,0.24 0.01,0.36 0,0.08 0,0.17 0,0.25 -0.01,-0.43 0,-0.03 -0.01,0.08 0,0.21 -0.01,0.43 -0.02,0.64 0,0.02 0,0.05 0,0.07 0,0.01 0,0.01 0,0.01 -0.02,0.12 -0.03,0.24 -0.04,0.36 -0.03,0.26 -0.06,0.51 -0.09,0.77 -0.01,0.13 -0.03,0.27 -0.04,0.4 -0.01,0.06 -0.02,0.11 -0.03,0.17 0,0.03 -0.01,0.05 -0.01,0.08 -0.09,0.62 -0.23,1.24 -0.38,1.85 0,0.02 -0.01,0.05 -0.02,0.09 0,0 0,0 0,0 0,0 0,0 0,0 0,0.02 -0.01,0.03 -0.01,0.04 0,-0.01 0,-0.01 0,-0.02 -0.02,0.07 -0.03,0.15 -0.05,0.21 -0.05,0.18 -0.1,0.35 -0.15,0.53 -0.11,0.34 -0.22,0.68 -0.34,1.02 -0.13,0.36 -0.28,0.72 -0.43,1.07 -0.07,0.17 -0.14,0.34 -0.22,0.51 -0.03,0.07 -0.07,0.15 -0.11,0.23 0,0.01 -0.01,0.02 -0.02,0.03 -0.03,0.07 -0.06,0.14 -0.1,0.2 -0.37,0.73 -0.79,1.42 -1.26,2.09 -1.21,1.73 -2.75,3.21 -4.51,4.37 -3.31,2.12 -7.24,2.99 -11.14,2.75 -1.47,-0.09 -2.9,-0.36 -4.3,-0.8 -0.76,-0.24 -1.5,-0.54 -2.23,-0.87 0.88,-1.16 1.89,-2.18 2.93,-3.2 1.13,-1.11 -0.52,-2.63 -1.71,-1.7 -1.09,0.86 -2.13,1.8 -3.22,2.64 -0.04,0.03 -0.07,0.06 -0.1,0.08 0,0 0,-0.01 -0.01,-0.01 -0.03,-0.06 -0.09,-0.19 -0.13,-0.29 -0.06,-0.14 -0.12,-0.29 -0.18,-0.43 0.04,0.12 0.09,0.24 0.14,0.36 -0.14,-0.01 -0.59,-1.49 -0.71,-1.71 -0.2,-0.4 -0.41,-0.78 -0.61,-1.19 -0.1,-0.2 -0.2,-0.42 -0.3,-0.62 -0.04,-0.07 -0.07,-0.14 -0.1,-0.21 0.27,0.66 0.21,0.51 -0.19,-0.45 -0.18,-0.37 -0.35,-0.73 -0.52,-1.11 -0.02,-0.03 -0.02,-0.03 -0.03,-0.06 -0.01,-0.01 -0.01,-0.01 -0.01,-0.02 -0.09,-0.24 -0.19,-0.48 -0.28,-0.72 -0.19,-0.5 -0.36,-1 -0.52,-1.51 -0.31,-0.99 -0.58,-1.98 -0.8,-2.99 -0.12,-0.58 -0.24,-1.16 -0.34,-1.75 -0.06,-0.3 -0.1,-0.6 -0.15,-0.9 0,-0.03 0,-0.03 -0.01,-0.05 0,-0.04 0,-0.07 -0.01,-0.14 -0.13,-1.56 -0.18,-3.11 -0.09,-4.68 0.03,-0.59 0.07,-1.17 0.13,-1.76 0,-0.06 0.01,-0.13 0.02,-0.19 0,-0.06 0.01,-0.19 0.02,-0.3 0.01,-0.06 0.03,-0.13 0.04,-0.22 0.01,-0.11 0.03,-0.22 0.04,-0.34 -0.01,0.08 -0.01,0.13 -0.02,0.19 0.06,-0.33 0.12,-0.74 0.15,-0.94 0.24,-1.39 0.5,-2.77 0.88,-4.13 0.23,-0.82 0.48,-1.62 0.78,-2.41 0.13,-0.38 0.3,-0.76 0.44,-1.14 0.12,-0.25 0.23,-0.51 0.35,-0.76 0.41,-0.84 0.85,-1.67 1.33,-2.47 0.25,-0.41 0.5,-0.82 0.77,-1.22 0.14,-0.2 0.8,-1.42 1.02,-1.42l-0.32 0.42c0.11,-0.14 0.23,-0.29 0.34,-0.43 0.15,-0.18 0.3,-0.36 0.45,-0.53 0.34,-0.4 0.7,-0.78 1.06,-1.16 0.51,-0.53 1.05,-1.04 1.6,-1.54 0.39,-0.35 0.78,-0.69 1.18,-1.02 0.21,-0.18 0.44,-0.34 0.65,-0.53 -1.21,1.07 -0.02,0.03 0.32,-0.22 1.39,-0.98 2.87,-1.86 4.41,-2.58 0.16,-0.07 0.33,-0.14 0.49,-0.21 0.45,-0.17 0.9,-0.34 1.36,-0.49 1.06,-0.35 2.14,-0.62 3.24,-0.82 0.2,-0.04 0.39,-0.07 0.59,-0.1 0.01,0 0.01,0 0.03,0 0.62,-0.05 1.25,-0.11 1.88,-0.13 0.52,-0.01 1.04,-0.01 1.56,0.01 0.22,0.01 1.14,-0.04 1.68,0.03 -0.14,0.01 -0.16,0.05 0.26,0.12 0.24,0.04 0.47,0.08 0.7,0.13 0.54,0.1 1.07,0.22 1.6,0.36 0.98,0.26 1.95,0.58 2.9,0.95 0.14,0.05 0.3,0.13 0.44,0.18 -0.07,-0.03 -0.11,-0.04 -0.17,-0.06 0.08,0.03 0.16,0.06 0.21,0.08 0.43,0.2 0.85,0.41 1.26,0.62 0.7,0.36 1.39,0.75 2.06,1.16 0.54,0.33 1.07,0.67 1.6,1.02 0.49,0.33 1.07,0.66 1.53,1.06 0,0.01 0.01,0.02 0.02,0.02 0.31,0.26 0.62,0.51 0.93,0.77 0.93,0.81 1.81,1.66 2.64,2.57 0.35,0.38 0.7,0.77 1.03,1.17 0.15,0.18 0.3,0.37 0.46,0.56 0.02,0.03 0.03,0.04 0.06,0.08 0.96,1.3 1.82,2.67 2.59,4.09 1.06,1.99 3.97,2.77 5.87,1.54 2.01,-1.29 2.68,-3.75 1.54,-5.87 -0.05,-0.1 -0.11,-0.19 -0.17,-0.29 1.87,-0.5 3.71,-1.08 5.58,-1.55 2.43,-0.62 4.89,-1.13 7.36,-1.55 0.6,-0.1 1.2,-0.2 1.8,-0.29 0.19,-0.03 0.38,-0.05 0.57,-0.08 0.01,0 0.04,-0.01 0.07,-0.01 0.11,-0.02 0.28,-0.04 0.33,-0.04 0.2,-0.03 0.39,-0.05 0.58,-0.08 1.46,-0.17 2.91,-0.31 4.36,-0.41 3.15,-0.22 6.32,-0.27 9.47,-0.14 1.6,0.06 3.2,0.17 4.79,0.32 0.77,0.07 1.55,0.15 2.32,0.25 0.19,0.02 0.38,0.05 0.58,0.07 0.38,0.05 0.77,0.11 1.16,0.17 5.45,0.83 10.79,2.22 15.98,4.11 1.22,0.44 2.44,0.92 3.65,1.42 0,0 0,0 0.01,0 0.02,0.01 0.04,0.02 0.06,0.03 0.27,0.11 0.54,0.23 0.82,0.35 0.17,0.07 0.33,0.14 0.5,0.21 0.1,0.05 0.2,0.09 0.31,0.13 0.29,0.13 0.58,0.26 0.87,0.39 2.11,0.93 4.14,2.13 6.32,2.86 1.93,0.64 4.06,-0.59 4.8,-2.36 0.16,-0.38 0.25,-0.75 0.29,-1.11 0.34,-0.17 0.68,-0.33 1.02,-0.5 0.38,-0.19 0.75,-0.38 1.13,-0.56 0.12,-0.06 0.27,-0.13 0.41,-0.19 0.02,-0.01 0.04,-0.02 0.08,-0.03 0.17,-0.05 0.34,-0.13 0.5,-0.2 1.01,-0.38 2.04,-0.69 3.09,-0.93 0.27,-0.06 1.51,-0.13 1.68,-0.3 0.09,-0.01 0.18,-0.02 0.27,-0.03 0.34,-0.03 0.69,-0.06 1.04,-0.07 0.63,-0.03 1.26,-0.03 1.89,0 0.32,0.01 0.65,0.04 0.97,0.07 0.12,0.01 0.24,0.03 0.36,0.04 0.04,0.01 0.07,0.01 0.13,0.02 1.32,0.27 2.6,0.59 3.86,1.07 0.01,0 0.04,0.02 0.06,0.03 0.04,0.01 0.07,0.01 0.15,0.05 0.03,0.01 0.07,0.03 0.1,0.05 0.02,0 0.04,0.01 0.05,0.01 -0.01,0 -0.01,0 -0.02,0 0.23,0.11 0.46,0.21 0.69,0.32 0.58,0.29 1.15,0.6 1.7,0.94 0.52,0.32 1.03,0.66 1.52,1.01 0.03,0.02 0.06,0.04 0.09,0.06 0.16,0.26 0.65,0.54 0.87,0.74 0.92,0.82 1.64,1.83 2.53,2.67 0.02,0.03 0.04,0.07 0.07,0.1 0.17,0.25 0.34,0.49 0.5,0.75 0.35,0.54 0.67,1.1 0.96,1.67 0.12,0.23 0.22,0.46 0.33,0.69 0.03,0.08 0.06,0.16 0.09,0.24 0.22,0.61 0.41,1.22 0.56,1.85 0.07,0.3 0.14,0.59 0.19,0.89 0.02,0.11 0.04,0.24 0.06,0.36 0.06,0.73 0.1,1.45 0.08,2.18 -0.01,0.35 -0.03,0.7 -0.07,1.05 0,0.02 0,0.04 0,0.05 0.01,-0.22 -0.07,-0.28 -0.05,0.28 0.01,-0.05 0.02,-0.09 0.03,-0.14 0,-0.02 0,-0.03 0.01,-0.05 -0.02,0.11 -0.04,0.21 -0.03,0.3 -0.01,-0.04 -0.01,-0.07 -0.01,-0.11 -0.12,0.62 -0.25,1.24 -0.42,1.86 -0.16,0.56 -0.34,1.12 -0.55,1.67 -0.05,0.13 -0.1,0.28 -0.16,0.42 -0.04,0.09 -0.09,0.19 -0.13,0.28 -0.41,0.87 -0.86,1.73 -1.35,2.56 -0.41,0.7 -0.86,1.37 -1.33,2.03 -0.06,0.09 -0.13,0.18 -0.21,0.27 0.14,-0.18 0.29,-0.32 0.03,-0.01 -0.03,0.03 -0.05,0.05 -0.07,0.07 -0.03,0.05 -0.07,0.1 -0.09,0.14 0.02,-0.03 0.04,-0.07 0.07,-0.1 -0.21,0.24 -0.41,0.48 -0.62,0.72 -0.87,0.98 -1.83,1.87 -2.84,2.71 -0.06,0.05 -0.08,0.07 -0.11,0.09 -0.38,0.29 -0.76,0.56 -1.1,0.88 -0.77,0.71 -1.31,1.58 -1.69,2.56 -1,2.54 1.51,4.9 3.82,5.02 0.69,0.03 1.34,-0.11 1.96,-0.36l0.01 0.01c-0.01,0.02 -0.01,0.02 0,0.02 0.01,0.02 0.03,0.07 0.05,0.11 0.1,0.2 0.23,0.46 0.28,0.56 0.1,0.19 0.19,0.39 0.29,0.58 0.11,0.21 0.21,0.41 0.32,0.62 0.05,0.11 0.13,0.26 0.18,0.35 0,-0.03 -0.02,-0.04 -0.03,-0.07 0.58,1.07 1.1,2.22 1.6,3.32 0.03,0.06 0.1,0.2 0.15,0.32 0.01,0.04 0.03,0.07 0.04,0.09 0,0.03 0.01,0.05 0.01,0.07 0.02,0.02 0.03,0.03 0.03,0.06 0.07,0.16 0.14,0.33 0.2,0.49 0.25,0.61 0.48,1.25 0.69,1.87 0.42,1.27 0.78,2.56 1.09,3.87 0.16,0.69 0.31,1.4 0.44,2.1 0.06,0.37 0.14,0.73 0.19,1.1 0,0 0.02,0.06 0.02,0.13 0,0 0,0.03 0.01,0.08 0.01,0.08 0.01,0.11 0.01,0.11 0.02,0.12 0.03,0.25 0.04,0.28 0.35,3 0.33,6.04 0,9.03 -0.01,0.07 -0.02,0.14 -0.02,0.22 0,0 0,0.04 -0.03,0.21l0 0.04c-0.06,0.32 -0.11,0.66 -0.18,0.99 -0.1,0.59 -0.22,1.19 -0.35,1.78 -0.24,1.09 -0.53,2.16 -0.86,3.23 -0.63,2.01 0.75,3.72 2.52,4.44 0.36,0.13 0.72,0.29 1.07,0.44 0.05,0 0.07,0.01 0.11,0.04 0.1,0.04 0.19,0.07 0.28,0.11 0.03,0.02 0.06,0.02 0.07,0.03 0.01,0 0.03,0.01 0.03,0.01l0.01 0c0.26,0.13 0.52,0.24 0.79,0.36 1.25,0.55 2.48,1.13 3.71,1.73 3.01,1.47 5.93,3.1 8.76,4.88 1.64,1.04 3.25,2.13 4.82,3.27 0.35,0.24 0.68,0.51 1.02,0.76 0.21,0.15 0.42,0.31 0.62,0.46 0.02,0 0.02,0.02 0.03,0.02 0.1,0.07 0.24,0.15 0.33,0.19 0.02,0.01 0.02,0.01 0.03,0.03l0.01 0c0.75,0.49 1.45,1.24 2.11,1.79 3.56,2.98 6.77,6.32 9.82,9.82 0.82,0.94 1.62,1.9 2.39,2.88 0.11,0.13 0.21,0.26 0.32,0.39 0.03,0.01 0.18,0.22 0.2,0.28l0.04 0.04c0.05,0.04 0.05,0.05 0.05,0.05 0.31,0.46 0.66,0.91 0.99,1.37 0.62,0.85 1.26,1.71 1.86,2.56 1.6,2.24 3.12,4.54 4.54,6.9 1.8,3.02 3.43,6.15 4.83,9.39l0.01 0.01c0,0.02 0.01,0.03 0.01,0.06 0.03,0.07 0.07,0.15 0.1,0.23 0.04,0.13 0.07,0.18 0.07,0.2 0,-0.02 0,-0.03 -0.02,-0.06 0.02,0.03 0.03,0.04 0.03,0.07l0.01 0.01c0.17,0.42 0.34,0.83 0.5,1.26 0.38,0.97 0.72,1.94 1.05,2.94 0.68,1.98 1.24,4.01 1.73,6.04 0.21,0.98 0.42,1.96 0.6,2.94 0.1,0.53 0.19,1.09 0.28,1.64 0.02,0.16 0.05,0.34 0.08,0.51 0.01,0.08 0.03,0.16 0.03,0.22 0.01,0.04 0.01,0.07 0.01,0.09 0.02,0.1 0.03,0.17 0.03,0.22l0 0.03c0.26,2.22 0.41,4.46 0.43,6.69 0.02,2.46 -0.11,4.93 -0.39,7.38zm-74.4 -152.18c0.03,0 0.06,-0.01 0.09,-0.01 -0.16,0.03 -0.7,0.07 -0.09,0.01zm82.98 137.84c-1.09,-8.81 -3.78,-17.2 -7.83,-25.09 -2.6,-5.06 -5.73,-9.82 -9.15,-14.36 -3.14,-4.16 -6.52,-8.15 -10.41,-11.64 -3.49,-3.13 -7.12,-6.11 -10.98,-8.77 -3.1,-2.15 -6.34,-4.1 -9.7,-5.85 -1.44,-0.74 -2.91,-1.46 -4.39,-2.14 -0.28,-0.12 -0.56,-0.24 -0.83,-0.37 -0.15,-0.07 -0.39,-0.16 -0.61,-0.26l-0.03 0 -0.01 -0.01c0,-0.02 -0.01,-0.02 -0.03,-0.02 -0.04,-0.01 -0.07,-0.03 -0.1,-0.04 -0.01,0 -0.04,-0.01 -0.05,-0.03 -0.04,-0.01 -0.07,-0.02 -0.1,-0.04l-0.01 0c-0.01,-0.01 -0.03,-0.01 -0.04,-0.01 -0.03,-0.01 -0.04,-0.03 -0.04,-0.03 -0.22,-0.08 -0.45,-0.18 -0.66,-0.27 -0.61,-0.27 -1.22,-0.52 -1.84,-0.75 1.9,-10.16 0.15,-20.84 -5.23,-29.76 -0.19,-0.32 -0.38,-0.64 -0.6,-0.93 -0.02,-0.01 -0.03,-0.04 -0.04,-0.05 -0.03,-0.04 -0.07,-0.1 -0.11,-0.14 0,-0.01 -0.02,-0.04 -0.05,-0.05 0,-0.02 -0.01,-0.05 -0.04,-0.06 -0.03,-0.05 -0.07,-0.11 -0.11,-0.16 -0.28,-0.36 -0.56,-0.72 -0.84,-1.09 -0.04,-0.06 -0.11,-0.13 -0.17,-0.2 -0.04,-0.05 -0.08,-0.09 -0.09,-0.12 -0.02,-0.02 -0.03,-0.02 -0.03,-0.03 0,-0.01 -0.01,-0.03 -0.01,-0.03 -0.15,-0.17 -0.3,-0.33 -0.45,-0.49 0.53,-0.47 1.04,-0.96 1.53,-1.47 1.99,-2.1 3.64,-4.5 4.88,-7.11 2.7,-5.68 3.73,-12.21 1.29,-18.19 -4.78,-11.7 -18.66,-18.21 -30.65,-13.88 -2.38,0.86 -4.54,1.98 -6.55,3.48 -1.13,-0.62 -2.36,-1.12 -3.5,-1.62 -2.31,-1.02 -4.64,-1.94 -7.02,-2.74 -5.18,-1.73 -10.53,-2.97 -15.93,-3.76 -12.38,-1.8 -25.07,-1.21 -37.16,2.1 -2.56,0.7 -5.16,1.45 -7.6,2.51 -0.47,0.2 -0.93,0.42 -1.4,0.64 -3.43,-4.35 -7.83,-7.95 -12.77,-10.44 -4.23,-2.12 -8.81,-3.41 -13.56,-3.46 -5.01,-0.05 -9.97,1.3 -14.35,3.69 -12.21,6.66 -19.19,20.93 -17.79,34.65 0.44,4.38 1.76,8.51 3.79,12.41 1.02,1.97 2.28,4.01 3.93,5.49 0.37,0.32 0.74,0.66 1.1,0.99 -1.64,1.78 -3.16,3.64 -4.56,5.59 -2.73,3.78 -4.95,8.3 -6.62,12.84 -0.32,0.81 -0.61,1.64 -0.89,2.46 -0.58,1.77 -1.09,3.58 -1.49,5.4 -2.91,0.95 -5.78,2.06 -8.53,3.36 -2.09,0.98 -4.13,2.09 -6.09,3.32 -4.87,3.06 -9.37,6.74 -13.33,10.92 -8.3,8.76 -14.58,19.39 -17.99,30.99 -2.18,7.46 -3.04,15.42 -2.81,23.17 0.36,11.38 3.15,22.73 8.83,32.63 1.06,1.85 2.22,3.64 3.46,5.35 0,0.02 0.01,0.03 0.01,0.03 5.5,7.6 12.73,13.92 21.01,18.34 8.63,4.62 18.05,7.19 27.72,8.4 6.89,0.87 13.89,0.98 20.82,0.4 7.96,-0.65 15.84,-2.15 23.37,-4.84 5.67,-2.03 11.13,-4.61 16.43,-7.5 5.23,3.83 17,11.19 33.72,12.33 16,1.08 28.22,-4.1 34.09,-7.15 7.96,6.03 17.58,9.85 27.5,11.12 4.52,0.58 9.1,0.62 13.61,0.11 10.44,-1.2 20.22,-5.1 28.27,-11.93 5.98,-5.06 10.65,-11.68 13.84,-18.8 5.13,-11.44 7.53,-24.56 5.97,-37.04z"/>
   <path class="fil9" d="M319.56 50.8c0.02,-0.03 0.03,-0.05 0.05,-0.07 -0.03,0.03 -0.05,0.07 -0.08,0.1 0.02,-0.01 0.02,-0.02 0.03,-0.03z"/>
   <path class="fil9" d="M313.63 25.79c-0.01,-0.01 -0.02,-0.01 -0.03,-0.01 -0.08,-0.02 -0.17,-0.06 -0.25,-0.1 -0.14,-0.03 0.02,0.12 0.28,0.11z"/>
   <path class="fil9" d="M316 61.53c-0.49,1.55 -0.09,3.22 0.16,4.79 0.05,0.32 0.1,0.64 0.15,0.96 0.05,0.4 0.06,0.42 0.01,0.08 0.02,0.2 0.05,0.41 0.07,0.61 0.11,0.95 0.29,1.88 0.45,2.83 0.23,1.38 0.52,2.75 0.73,4.13 0.03,0.21 0.06,0.43 0.09,0.64 -0.07,-0.52 -0.07,-0.55 -0.02,-0.1 0.04,0.32 0.08,0.64 0.11,0.96 0.08,0.74 0.15,1.49 0.21,2.23 0.25,2.88 0.28,5.79 0.08,8.67 -0.05,0.75 -0.12,1.5 -0.2,2.25 -0.04,0.37 -0.09,0.75 -0.14,1.12 -0.02,0.16 -0.04,0.32 -0.06,0.48 -0.06,0.49 -0.05,0.42 0.03,-0.19 -0.24,0.66 -0.23,1.53 -0.36,2.22 -0.18,0.98 -0.54,2.05 -0.43,3.04 0.2,1.79 1.16,3.62 3.09,4.05 1.84,0.43 3.75,-0.28 4.75,-1.93 0.93,-1.53 1.07,-3.65 1.31,-5.41 0.24,-1.76 0.42,-3.53 0.49,-5.3 0.12,-3.06 -0.01,-6.13 -0.4,-9.16 -0.41,-3.24 -1.01,-6.6 -2.19,-9.66 -0.62,-1.58 -1.33,-3.07 -2.2,-4.53 -0.83,-1.39 -1.83,-3.05 -3.36,-3.74 -0.96,-0.44 -2.03,-0.11 -2.37,0.96z"/>
   <path class="fil10" d="M380.82 186.96c-6.05,17 -24.35,42.7 -51.01,39.82 -20.19,-2.18 -37.85,-19.95 -41.81,-43.78 -3.4,-2.96 -6.79,-5.92 -10.2,-8.88 -8.52,6.07 -20.88,14.62 -36.2,24.35 -0.2,0.13 -0.38,0.25 -0.58,0.37 -30.64,19.43 -38.6,21.63 -44.18,22.67 -2.75,0.52 -8.92,1.68 -16.8,1.48l-0.01 0c-8.92,-0.22 -20.05,-2.16 -30.92,-8.72 -0.62,-0.37 -1.23,-0.75 -1.83,-1.15 -27.37,-17.9 -29.03,-51.74 -29.11,-54.14 -1,-30.92 19.67,-50.79 24.69,-55.3 6.69,-6.01 13.34,-9.66 18.1,-11.85 1.61,-5.87 4.43,-13.36 9.55,-21.06 2,-3.02 4.08,-5.65 6.09,-7.92 0.54,-0.32 1.08,-0.64 1.62,-0.97 -2.37,-1.56 -6.6,-4.84 -9.15,-10.45 -5.74,-12.62 2.34,-25.38 3.63,-27.4 1.91,-3.02 7.38,-11.67 17.67,-13.78 10.64,-2.19 22.35,3.44 29.51,14.11 6.72,-2.92 19.57,-7.46 36.2,-6.91 16.96,0.55 29.68,6.12 36.21,9.54 8.89,-8.98 23.38,-8.3 30.94,0.33 7.77,8.9 6.14,23.91 -4.61,31.27 2.65,3.3 7.32,10.02 9.21,19.75 1.41,7.22 0.74,13.31 0,17.11 8.01,2.57 23.39,8.75 36.16,23.46 3.48,4.01 28.88,34.23 16.83,68.05z"/>
   <path class="fil11" d="M255.33 189.56c-19.98,5.01 -39.96,-2.67 -48.87,-17.9 -11.04,-18.87 -4.15,-47.76 11.93,-52.97 11.88,-3.86 24.84,6.52 27.43,8.67 3.17,20.74 6.34,41.47 9.51,62.2z"/>
   <path class="fil11" d="M249.71 16.89c6.25,10.98 7.42,20.68 7.65,25.81 0.68,15.37 -5.38,27.08 -9.02,34.11 -3.31,6.4 -6.86,11.25 -9.44,14.43 -1.96,-9.05 -3.98,-23.99 -0.73,-41.89 2.57,-14.14 7.52,-25.15 11.54,-32.46z"/>
   <path class="fil11" d="M253.89 190.29c-3.62,3.66 -7.83,7.53 -12.71,11.39 -3.33,2.64 -6.59,4.97 -9.69,7.02 0,0 -13.33,7.86 -32.07,12.25 -1.33,0.31 -2.58,0.56 -2.58,0.56 -2.75,0.52 -8.92,1.68 -16.8,1.48l-0.02 0c-3.91,-0.05 -8.81,-0.49 -14.3,-1.87 -9.25,-2.34 -15.57,-6.21 -18.44,-8 -2.91,-1.82 -18.72,-11.68 -26.43,-29.49 -12.2,-28.19 2.07,-62 22.01,-79.95 6.79,-6.11 13.53,-9.75 18.1,-11.85 1.74,-5.95 4.62,-13.35 9.54,-21.06 2.09,-3.27 4.25,-6.12 6.35,-8.6 1.86,-0.18 3.72,0.21 5.24,1.31l-1.17 0.64c-0.91,0.69 -10.05,7.78 -9.76,19.68 0.21,9.05 5.78,17.3 14.28,21.2 -3.11,0.52 -28.12,5.08 -39.06,27.06 -7.85,15.79 -4.13,31.09 -3.09,35.1 0,0 4.04,15.21 16.3,26.41 14.77,13.49 35,13.47 43.82,13.45 24.58,-0.03 42.66,-11.16 50.48,-16.73z"/>
   <path class="fil9" d="M253.47 12.7c-1.24,1.48 -2.49,3.06 -3.5,4.71 -1.32,2.17 -2.35,4.51 -3.33,6.85 -2.34,5.64 -3.93,11.63 -5.01,17.64 -2.55,14.31 -1.69,29.23 2.17,43.23 0.79,2.88 1.72,5.72 2.78,8.52 0.9,2.38 1.74,4.98 3.28,7.03 1.1,1.46 2.72,2.24 4.52,1.48 1.64,-0.69 2.56,-2.5 2.09,-4.26 -0.18,-0.68 -0.41,-1.29 -0.69,-1.94 -0.37,-0.88 0.33,0.8 0.03,0.07 -0.2,-0.49 -0.4,-0.99 -0.62,-1.48 -0.43,-0.96 -0.89,-1.91 -1.32,-2.88 -0.11,-0.25 -0.21,-0.5 -0.32,-0.74 -0.24,-0.56 0.13,0.29 0.14,0.33 -0.05,-0.13 -0.11,-0.26 -0.16,-0.39 -0.25,-0.6 -0.49,-1.2 -0.73,-1.81 -0.48,-1.23 -0.94,-2.47 -1.37,-3.72 -0.97,-2.8 -1.8,-5.66 -2.5,-8.54 -0.39,-1.58 -0.74,-3.18 -1.03,-4.79 -0.15,-0.79 -0.28,-1.58 -0.4,-2.37 -0.07,-0.41 -0.12,-0.81 -0.18,-1.22 -0.1,-0.66 -0.03,-0.18 -0.01,-0.04 -0.04,-0.31 -0.08,-0.62 -0.12,-0.93 -0.89,-7.38 -0.85,-14.82 -0.05,-22.2 0.04,-0.41 0.09,-0.81 0.14,-1.22 0.02,-0.2 0.05,-0.4 0.07,-0.6 0.02,-0.07 0.08,-0.58 0.02,-0.1 0.11,-0.84 0.24,-1.67 0.37,-2.5 0.26,-1.58 0.57,-3.16 0.91,-4.73 0.62,-2.87 1.42,-5.67 2.25,-8.48 0.77,-2.63 1.7,-5.22 2.51,-7.84 0.62,-2.02 1.14,-4.09 1.7,-6.13 0.25,-0.89 -0.99,-1.74 -1.64,-0.95z"/>
   <path class="fil9" d="M254.75 96.36c-0.43,-0.04 -0.86,-0.07 -1.29,-0.11l1.21 0.33c-0.8,-0.34 -1.22,-0.41 -2.08,-0.27 -0.23,0.04 -0.46,0.08 -0.69,0.11 -0.49,0.08 -0.98,0.16 -1.46,0.24 -1.12,0.2 -2.19,0.51 -3.26,0.86 -2.83,0.89 -5.56,2.01 -8.2,3.35 -6.43,3.24 -12.04,7.73 -16.83,13.09 -3.43,3.86 -6.72,7.9 -9.23,12.42 -3.39,6.11 -5.47,12.93 -5.77,19.92 -0.13,2.89 0.17,5.78 0.56,8.64 0.71,5.05 2.06,9.83 4.24,14.46 2.89,6.17 7.36,11.34 12.97,15.19 6.22,4.26 13.85,6.34 21.36,6.37 6.18,0.03 12.53,-0.83 18.36,-2.9 5.88,-2.07 11.13,-5.05 16.03,-8.87 0.61,-0.47 1.2,-0.95 1.79,-1.45 1.21,-1.03 1.9,-3.06 1.9,-4.59 0,-1.59 -0.71,-3.5 -1.9,-4.59 -1.24,-1.14 -2.87,-1.98 -4.59,-1.9 -1.8,0.08 -3.22,0.73 -4.59,1.9 -0.59,0.5 -1.18,0.98 -1.79,1.45 0.44,-0.34 0.88,-0.67 1.31,-1.01 -3.28,2.53 -6.88,4.63 -10.71,6.25 0.52,-0.22 1.04,-0.44 1.55,-0.65 -3.69,1.53 -7.54,2.58 -11.5,3.12 0.57,-0.08 1.15,-0.16 1.72,-0.23 -4.52,0.57 -9.17,0.71 -13.7,0.11 0.57,0.08 1.14,0.15 1.7,0.23 -3.23,-0.46 -6.41,-1.23 -9.42,-2.49 0.47,0.2 0.95,0.41 1.43,0.61 -2.46,-1.05 -4.77,-2.39 -6.91,-4.01 0.38,0.29 0.76,0.59 1.14,0.88 -1.56,-1.21 -3.02,-2.56 -4.34,-4.04 -0.26,-0.29 -0.52,-0.59 -0.77,-0.89 -0.15,-0.18 -0.3,-0.37 -0.45,-0.55 -0.59,-0.73 0.81,1.08 0.25,0.32 -0.54,-0.74 -1.07,-1.49 -1.55,-2.27 -0.9,-1.41 -1.66,-2.9 -2.34,-4.43 -0.14,-0.34 -0.44,-1.14 0.16,0.38 -0.07,-0.19 -0.16,-0.38 -0.23,-0.58 -0.14,-0.35 -0.28,-0.7 -0.41,-1.05 -0.28,-0.77 -0.54,-1.55 -0.78,-2.35 -0.41,-1.32 -0.77,-2.66 -1.03,-4.02 -0.11,-0.58 -0.21,-1.16 -0.3,-1.75 -0.07,-0.44 -0.21,-1.71 0.01,0.16 -0.03,-0.28 -0.07,-0.56 -0.1,-0.84 -0.17,-1.46 -0.28,-2.94 -0.28,-4.41 0,-0.5 0.02,-0.99 0.04,-1.49 0.02,-0.6 0.06,-1.2 0.12,-1.8 0.02,-0.2 0.04,-0.4 0.06,-0.59 0.02,-0.2 0.04,-0.39 0.06,-0.58 -0.09,0.66 -0.1,0.76 -0.03,0.28 0.33,-2.11 0.79,-4.19 1.45,-6.22 0.17,-0.5 0.34,-1 0.53,-1.49 0.09,-0.25 0.19,-0.49 0.29,-0.73 0.34,-0.86 -0.4,0.89 -0.02,0.05 0.41,-0.92 0.83,-1.83 1.3,-2.71 0.83,-1.6 1.76,-3.14 2.77,-4.64 0.44,-0.66 0.9,-1.31 1.38,-1.95 0.24,-0.34 0.5,-0.67 0.75,-1 -0.87,1.16 0.02,-0.01 0.22,-0.27 0.89,-1.11 1.82,-2.19 2.76,-3.27 1.43,-1.65 2.92,-3.24 4.51,-4.73 0.82,-0.77 1.65,-1.51 2.51,-2.22 0.45,-0.38 0.91,-0.75 1.37,-1.12 0.56,-0.45 -0.04,0.02 -0.13,0.1 0.47,-0.41 1.01,-0.77 1.5,-1.15 0.22,-0.17 0.44,-0.35 0.66,-0.52 0.34,-0.27 0.29,-0.23 -0.14,0.11 0.15,-0.12 0.29,-0.23 0.44,-0.34 0.44,-0.33 0.88,-0.65 1.32,-0.96 0.93,-0.66 1.87,-1.29 2.83,-1.89 1.72,-1.09 3.5,-2.09 5.29,-3.06 1.49,-0.82 3.05,-1.5 4.54,-2.31 0.61,-0.33 1.26,-0.62 1.86,-0.97l0.13 -0.06c-0.53,0.22 -0.43,0.18 0.27,-0.12 0.37,-0.22 0.67,-0.52 0.89,-0.89 -0.27,0.32 -0.31,0.4 -0.11,0.24 0.27,-0.34 -0.41,0.3 -0.04,0.03 0.13,-0.11 0.26,-0.21 0.4,-0.31 1.53,-1.15 1,-3.37 -0.97,-3.56z"/>
   <path class="fil9" d="M259.44 18.99c0.54,0.39 1.06,0.93 1.64,1.25 0.63,0.35 1.3,0.66 1.95,1 1.25,0.68 2.47,1.42 3.65,2.21 0.58,0.39 1.14,0.8 1.71,1.2 0.26,0.18 0.52,0.37 0.78,0.57 0.15,0.11 0.3,0.22 0.45,0.33 -0.29,-0.22 0.1,0.09 0.2,0.17 1.12,0.9 2.18,1.86 3.2,2.87 1.03,1.02 1.99,2.09 2.93,3.18 0.47,0.53 0.92,1.07 1.35,1.62 0.09,0.11 0.18,0.22 0.26,0.33 0.32,0.38 -0.28,-0.38 0.02,0.02 0.25,0.33 0.5,0.67 0.75,1 1.76,2.38 3.32,4.88 4.69,7.5 0.76,1.45 1.45,2.92 2.11,4.41 0.27,0.63 0.09,0.22 0.03,0.08 0.09,0.2 0.17,0.4 0.25,0.6 0.15,0.35 0.29,0.7 0.43,1.06 0.31,0.81 0.61,1.62 0.9,2.44 1.13,3.18 2.07,6.42 2.88,9.7 0.81,3.29 1.48,6.61 2.07,9.95 0.31,1.73 0.6,3.47 0.87,5.21 0.13,0.81 0.24,1.63 0.36,2.44 0.11,0.76 0.03,0.18 0,0.02 0.03,0.24 0.06,0.47 0.09,0.7 0.06,0.46 0.12,0.93 0.18,1.39 0.48,4.06 0.78,8.14 0.78,12.23 0,1.98 -0.09,3.97 -0.26,5.94 -0.2,2.29 -0.44,4.52 0.29,6.76 0.4,1.24 1.38,2.14 2.69,2.32 1.37,0.19 2.45,-0.47 3.23,-1.55 1.37,-1.88 1.76,-4.21 1.91,-6.49 0.13,-1.86 0.17,-3.72 0.15,-5.58 -0.03,-3.74 -0.3,-7.47 -0.75,-11.19 -0.9,-7.4 -2.26,-14.79 -4.08,-22.02 -3.23,-12.83 -8.63,-26.12 -18.7,-35.13 -2.56,-2.3 -5.39,-4.51 -8.43,-6.14 -1.53,-0.81 -3.11,-1.51 -4.72,-2.12 -0.78,-0.29 -1.56,-0.53 -2.35,-0.76 -0.91,-0.26 -1.87,-0.18 -2.8,-0.15 -1.48,0.05 -1.81,1.82 -0.71,2.63z"/>
   <path class="fil9" d="M262.1 15.45c0.26,0.25 0.52,0.49 0.78,0.74 0.16,0.15 0.32,0.31 0.48,0.45 0.07,0.07 0.14,0.14 0.21,0.21 -0.38,-0.36 0.17,0.23 0.25,0.3 0.37,0.37 0.9,0.66 1.32,0.98 0.21,0.15 0.41,0.3 0.61,0.45 0.09,0.07 0.18,0.14 0.27,0.21 -0.2,-0.16 -0.13,-0.1 0.02,0.02 1.63,1.4 3.16,2.89 4.8,4.28 1.86,1.58 3.65,3.26 5.35,5.03 0.94,0.99 1.86,2 2.75,3.04 0.46,0.55 0.91,1.09 1.36,1.65 0.07,0.09 0.56,0.71 0.32,0.4 -0.1,-0.13 0.73,0.95 0.46,0.59 -0.12,-0.16 0.22,0.31 0.26,0.35 1.76,2.36 3.37,4.83 4.81,7.39 0.66,1.18 1.29,2.38 1.87,3.59 0.27,0.54 0.52,1.08 0.77,1.63 0.12,0.27 0.24,0.54 0.36,0.8 0.09,0.22 0.42,1.01 0.16,0.38 1.72,4.19 3.06,8.51 4.3,12.87 1.03,3.62 1.89,7.29 2.55,11 0.2,1.12 0.37,2.23 0.54,3.35 0.04,0.27 0.07,0.54 0.11,0.81 0.08,0.53 -0.09,-0.75 -0.02,-0.21 0.01,0.14 0.03,0.28 0.05,0.41 -0.01,-0.05 0.23,1.62 0.1,0.79 -0.08,-0.54 -0.01,-0.06 0.01,0.05 0.04,0.32 0.08,0.65 0.12,0.98 0.3,2.59 0.52,5.18 0.65,7.78 0.14,2.86 0.17,5.73 0.1,8.59 -0.05,1.77 -0.54,4.09 0.39,5.67 0.49,0.84 1.38,1.4 2.13,2.02 0.58,0.47 1.16,0.95 1.74,1.44 4.1,3.48 7.96,7.25 11.55,11.25 1.49,1.65 2.94,3.36 4.34,5.1 0.29,0.36 0.58,0.73 0.87,1.09 0.14,0.18 0.28,0.37 0.42,0.54 0.04,0.05 -0.58,-0.76 -0.31,-0.4 0.09,0.12 0.18,0.23 0.27,0.34 0.49,0.66 0.99,1.32 1.48,1.98 2.29,3.09 4.47,6.26 6.45,9.56 1.22,2.04 2.37,4.13 3.45,6.25 0.61,1.19 1.19,2.39 1.74,3.61 0.13,0.29 0.26,0.58 0.39,0.87 0.05,0.12 0.52,1.22 0.29,0.67 -0.22,-0.53 0.17,0.4 0.23,0.55 0.15,0.36 0.29,0.72 0.43,1.09 1.93,4.89 3.92,9.93 4.93,15.11 0.1,0.51 0.15,1.03 0.26,1.54 0.01,0.05 -0.12,-0.99 -0.07,-0.51 0.01,0.13 0.03,0.26 0.05,0.39 0.03,0.3 0.06,0.6 0.08,0.9 0.09,1.13 0.1,2.27 0.05,3.4 -0.03,0.59 -0.08,1.18 -0.14,1.77 -0.08,0.81 0.14,-0.86 0.01,-0.04 -0.01,0.05 -0.02,0.11 -0.03,0.16 -0.04,0.29 -0.09,0.58 -0.14,0.87 -0.43,2.31 -1.1,4.59 -1.97,6.78 -0.07,0.17 -0.14,0.34 -0.2,0.5 -0.1,0.26 0.46,-1.06 0.15,-0.35 -0.17,0.38 -0.34,0.76 -0.52,1.13 -0.37,0.79 -0.78,1.56 -1.21,2.31 -0.46,0.8 -0.96,1.59 -1.48,2.34 -0.13,0.18 -0.26,0.36 -0.39,0.54 -0.1,0.14 -0.68,0.9 -0.19,0.28 0.46,-0.6 -0.04,0.04 -0.16,0.18 -0.16,0.2 -0.33,0.41 -0.51,0.61 -0.67,0.77 -1.37,1.5 -2.12,2.2 -0.35,0.33 -0.72,0.65 -1.09,0.96 -0.19,0.16 -0.39,0.31 -0.57,0.47 0.96,-0.85 0.15,-0.12 -0.13,0.08 -0.91,0.66 -1.87,1.26 -2.86,1.8 -0.55,0.3 -1.1,0.58 -1.67,0.84 -0.15,0.07 -0.3,0.13 -0.45,0.2 -0.46,0.21 0.29,-0.13 0.29,-0.12 0.01,0.03 -0.95,0.36 -1.04,0.39 -1.26,0.44 -2.54,0.79 -3.85,1.05 -0.34,0.06 -0.68,0.12 -1.03,0.17 -0.83,0.14 0.82,-0.08 -0.01,0 -0.62,0.06 -1.24,0.12 -1.87,0.14 -1.21,0.06 -2.42,0.03 -3.63,-0.06 -0.27,-0.02 -0.54,-0.05 -0.81,-0.07 -0.31,-0.04 -1.35,-0.21 -0.04,0.01 -0.56,-0.1 -1.13,-0.18 -1.69,-0.28 -2.06,-0.39 -4.09,-0.97 -6.05,-1.69 -0.41,-0.15 -0.82,-0.31 -1.22,-0.47 -0.17,-0.07 -0.89,-0.37 -0.15,-0.06 0.77,0.33 -0.15,-0.06 -0.31,-0.14 -0.68,-0.3 -1.36,-0.63 -2.03,-0.97 -0.96,-0.48 -1.89,-1.01 -2.81,-1.57 -0.59,-0.37 -1.16,-0.76 -1.73,-1.16 -0.19,-0.14 -0.51,-0.49 -0.74,-0.55 0.01,0.01 0.65,0.52 0.28,0.22 -0.12,-0.1 -0.24,-0.19 -0.36,-0.28 -0.53,-0.43 -1.04,-0.87 -1.55,-1.33 -0.88,-0.81 -1.73,-1.66 -2.53,-2.55 -0.35,-0.38 -0.68,-0.78 -1.02,-1.18 -0.16,-0.19 -0.32,-0.39 -0.47,-0.59 -0.09,-0.11 -0.37,-0.47 0.03,0.05 0.45,0.57 -0.01,-0.02 -0.1,-0.15 -1.1,-1.47 -2.08,-3.02 -2.95,-4.64 -0.86,-1.59 -1.92,-3.4 -3.38,-4.46 0.46,0.46 0.92,0.92 1.38,1.38 0.09,0.23 0.19,0.47 0.29,0.7 -0.4,-0.97 -0.82,-1.75 -1.77,-2.3 -0.82,-0.48 -2.04,-0.69 -2.97,-0.39 -1.78,0.58 -3.52,2.75 -2.69,4.74 0.16,0.38 0.32,0.76 0.48,1.14l-0.38 -2.97c-0.15,1.07 -0.09,1.95 0.17,2.96 0.11,0.45 0.22,0.91 0.36,1.34 0.46,1.36 1.24,2.65 1.97,3.87 1.65,2.73 3.63,5.32 5.85,7.61 3.39,3.5 7.44,6.33 11.86,8.36 5.89,2.71 12.33,4.45 18.86,4.13 7.7,-0.37 15.04,-3.48 20.6,-8.84 6.49,-6.26 10.34,-15.31 11.03,-24.26 0.55,-7.13 -1.83,-13.96 -4.27,-20.54 -2.61,-7.08 -5.72,-13.88 -9.85,-20.2 -6.7,-10.28 -14.91,-19.71 -24.23,-27.67 -1.59,-1.36 -3.2,-2.68 -4.85,-3.96 0.38,0.93 0.77,1.86 1.15,2.78 0.6,-12.98 -0.9,-26.06 -4.7,-38.49 -1.85,-6.07 -3.93,-12.08 -6.82,-17.74 -3.5,-6.84 -8.19,-13.11 -13.69,-18.47 -2.69,-2.62 -5.55,-5.11 -8.75,-7.08 -1.24,-0.77 -2.56,-1.45 -3.82,-2.16 -0.31,-0.18 -0.61,-0.35 -0.92,-0.52 -0.24,-0.12 -0.47,-0.27 -0.73,-0.34 -0.67,-0.06 -0.84,-0.09 -0.5,-0.09 0.18,0.01 0.16,-0.01 -0.06,-0.07 -0.5,-0.28 -1.18,-0.4 -1.73,-0.58 -1.66,-0.54 -2.99,1.77 -1.71,2.95z"/>
   <path class="fil9" d="M275.01 19.97c-0.03,-0.13 -0.04,-0.33 -0.13,-0.43 -0.22,-0.21 -0.39,-0.44 -0.57,-0.69 -0.19,-0.27 -0.4,-0.51 -0.63,-0.75 -0.19,-0.2 -0.37,-0.41 -0.58,-0.6 -0.21,-0.19 -0.43,-0.38 -0.65,-0.57 -0.79,-0.68 -1.62,-1.32 -2.44,-1.97 -1.7,-1.35 -3.43,-2.66 -5.18,-3.94 -0.91,-0.67 -1.82,-1.34 -2.74,-2 -0.91,-0.66 -1.84,-1.28 -2.77,-1.9 -1.85,-1.24 -3.72,-2.45 -5.61,-3.62 -1.03,-0.63 -2.05,-1.26 -3.09,-1.88 -0.5,-0.31 -1.04,-0.63 -1.58,-0.85 -0.26,-0.11 -0.48,-0.18 -0.75,-0.2 -0.13,-0.01 -0.24,-0.01 -0.36,-0.03 -0.17,-0.02 -0.27,0.02 -0.43,0.08 -0.1,0.04 -0.14,0.18 -0.17,0.3 -0.81,0.16 -1.22,1.21 -0.59,1.91 0.06,0.07 0.33,0.37 0.24,0.26 -0.1,-0.11 0.23,0.26 0.32,0.35 0.09,0.09 0.2,0.18 0.3,0.27 0.52,0.49 1.04,0.98 1.54,1.5 1.32,1.4 2.46,2.78 3.36,4.51 0.13,0.25 0.23,0.52 0.35,0.78 -0.49,0.62 -0.81,1.36 -0.91,2.1 -0.13,0.98 0.09,1.9 0.56,2.69 -0.96,1.07 -1.68,2.38 -2.19,3.71 -0.89,2.27 -1.34,5.24 -0.09,7.45 0.08,0.14 0.2,0.24 0.33,0.32 0.03,0.09 0.04,0.18 0.08,0.27 -0.77,1.11 -1.68,2.29 -1.83,3.64 -0.07,0.6 0.58,1.16 1.14,1.14 1.33,-0.04 2.53,-1 3.45,-1.95 0.58,0.25 1.22,0.4 1.87,0.42 2.37,0.07 4.31,-1.13 5.79,-2.88 0.85,-0.99 1.65,-2.11 2.29,-3.26 1.16,-2.12 2.15,-4.59 2.25,-7.04 0.03,-0.49 -0.02,-0.99 -0.09,-1.48 1.26,0.85 2.53,1.7 3.8,2.55 0.94,0.63 1.87,1.27 2.81,1.9 0.43,0.3 0.9,0.65 1.39,0.84 0.22,0.08 0.45,0.24 0.67,0.27 0.11,0.01 0.21,0.03 0.32,0.04 0.14,0.02 0.25,0.08 0.37,0.15 0.14,0.07 0.18,-0.79 0.18,-0.81 0.01,-0.2 0,-0.4 -0.03,-0.6z"/>
   <path class="fil12" d="M254.47 13.43c-0.81,2.43 -1.62,5.62 -1.94,9.42 -0.26,3.11 -0.13,5.85 0.12,8.08 0.97,-1.41 4.95,-7.53 3.59,-15.58 -0.84,-5.04 -3.4,-8.49 -4.74,-10.06 1.69,1.29 4.38,3.71 6.34,7.57 3.29,6.49 2.34,12.68 1.92,14.77 0.53,-0.6 4.18,-4.79 3.23,-10.4 -0.49,-2.89 -1.98,-4.88 -2.82,-5.83 9.61,4.75 15.8,10.46 19.41,14.36 10.67,11.53 14.61,24.42 17.61,34.31 2.15,7.11 3.09,12.65 3.4,14.71 0.92,6.01 1.68,14.44 0.92,24.65 3.52,2.82 7.05,5.64 10.58,8.46 5.03,4.55 12.28,12.05 18.49,22.91 5.26,9.19 19.2,33.54 8.83,49.92 -5.97,9.44 -17.23,11.85 -18.12,12.03 -8.36,1.67 -15.07,-1.16 -20.24,-3.35 -10.27,-4.34 -16.87,-11.34 -20.55,-16.13 -2.4,-0.3 -4.79,-0.6 -7.18,-0.9 -2.01,2.35 -8.38,9.18 -19.01,11.25 -14.23,2.77 -25.02,-5.18 -27.7,-7.31 -10.09,-8.02 -14.18,-20.39 -13.55,-30.9 0.7,-11.66 7.09,-19.4 13.7,-27.4 8.74,-10.58 18.39,-16.61 24.45,-19.8l0.26 0.53c-11.47,-26.83 -10.53,-58.69 2.5,-84.8l0.5 -0.51z"/>
   <path class="fil13" d="M256.35 28.71c0.88,-1.56 1.84,-3.76 2.1,-6.47 0.67,-7.04 -3.82,-12.6 -3.33,-12.88 0.36,-0.21 3.04,2.54 4.73,6.76 2.27,5.67 2.33,12.99 -0.05,13.94 -0.56,0.23 -1.57,0.22 -3.45,-1.35z"/>
   <path class="fil13" d="M260.3 11.26c5.09,4.32 10.72,9.9 16.05,17.02 13.48,17.96 18.15,36.4 19.97,47.61 1.73,7.85 3.46,15.7 5.18,23.55 1.1,-7.95 4.48,-39.31 -16.1,-66.37 -8.33,-10.96 -17.96,-17.75 -25.1,-21.81z"/>
   <g>
    <image x="167.68" y="117.56" width="73.05" height="82.44" xlink:href="CUY_PREGUNTON_Images\CUY_PREGUNTON_ImgID1.png"/>
   </g>
   <path class="fil14" d="M346.12 103.82c7.76,7.07 27.14,26.75 32.16,57.86 2.06,12.81 1.11,23.96 -0.39,32.18 1.91,-3.96 4.27,-9.94 5.38,-17.48 3.09,-21.14 -6.19,-37.78 -10.12,-44.6 -8.54,-14.83 -20,-23.51 -27.03,-27.96z"/>
   <path class="fil13" d="M311.12 107.09c-0.48,0.41 3.89,6.25 14.75,22.32 2.83,4.18 5.88,8.74 9.56,14.43 1.8,2.79 3.3,5.14 4.37,6.84 -1.75,-6.16 -5.17,-15.79 -11.74,-25.27 -4.09,-5.9 -8.26,-10.1 -12.66,-14.54 -1.21,-1.21 -4.01,-4.02 -4.28,-3.78z"/>
   <path class="fil14" d="M317.4 22.81c6.23,5.66 8.68,14.09 6.26,21.43 -2.5,7.53 -9.12,10.82 -10.48,11.46 0.63,0.25 1.29,0.53 1.97,0.87 1.33,0.64 2.48,1.34 3.47,2.02 1.66,-1.15 4.19,-3.21 6.21,-6.51 3.72,-6.1 5.01,-15.27 0.42,-22.41 -1,-1.56 -3.3,-4.6 -7.85,-6.86z"/>
   <path class="fil11" d="M169.05 31.33c-0.16,2.08 -0.59,10.62 5.42,18.21 8.03,10.14 20.59,9.79 21.91,9.74 -1.31,0.92 -8.26,5.59 -15.99,3.38 -9.36,-2.67 -12.97,-13.45 -13.35,-20.24 -0.28,-4.88 1.04,-8.82 2.01,-11.09z"/>
   <path class="fil9" d="M323.27 62.3c-0.27,-0.56 -0.53,-1.13 -0.88,-1.64 -0.36,-0.51 -0.74,-1.01 -1.17,-1.48 -0.99,-1.11 -2.1,-2.1 -3.31,-2.97 -1.21,-0.87 -2.56,-1.65 -3.97,-2.17 -0.27,-0.09 -0.58,-0.22 -0.88,-0.22 -0.11,0 -0.26,-0.03 -0.37,0 -0.07,0.03 -0.11,0.08 -0.18,0.11 -0.08,0.02 -0.15,0.01 -0.22,0.06 -0.15,0.12 -0.2,0.4 -0.21,0.59 -0.03,0.34 0.01,0.69 0.16,1 0.09,0.18 0.25,0.24 0.36,0.4 0.06,0.07 0.09,0.13 0.17,0.18 0.07,0.05 0.15,0.08 0.22,0.13 0.61,0.44 1.36,0.67 2.04,0.97 0.78,0.36 1.53,0.77 2.27,1.2 -0.02,-0.02 -0.05,-0.03 -0.08,-0.05 1.33,0.78 2.57,1.71 3.71,2.76 0.44,0.4 0.87,0.83 1.3,1.25 0.3,0.3 0.63,0.54 0.98,0.79 0.1,0.07 0.11,-0.26 0.12,-0.29 0.01,-0.19 0.02,-0.45 -0.06,-0.62z"/>
   <path class="fil9" d="M245.27 91.38c-0.92,8.41 -6.25,14.72 -11.9,14.1 -5.65,-0.63 -9.47,-7.95 -8.54,-16.36 0.93,-8.4 6.26,-14.72 11.9,-14.09 5.65,0.62 9.47,7.94 8.54,16.35z"/>
   <path class="fil9" d="M316.33 86.56c-0.5,-2.94 -2.06,-5.58 -4.07,-7.38 -2.07,-1.87 -5.37,-3.34 -7.8,-1.37 -1.25,1.02 -1.99,3.04 -1.05,4.69 0.49,0.88 1.15,1.55 1.81,2.21 -0.38,0.95 -0.62,2.13 -0.62,3.42 0,1.08 0.17,2.08 0.44,2.93 -0.07,0.06 -0.15,0.1 -0.22,0.16 -1.69,1.3 -2.65,3.37 -2.37,5.75 0.24,2.08 1.64,4.42 3.56,4.81 1.41,0.28 2.6,0.29 3.94,-0.37 0.58,-0.28 1.13,-0.54 1.65,-0.96 1.36,-1.08 2.44,-2.37 3.33,-3.98 1.65,-2.97 1.97,-6.51 1.4,-9.91z"/>
   <path class="fil13" d="M311.29 83.33c0.26,2.1 -0.58,3.93 -1.88,4.1 -1.3,0.16 -2.56,-1.41 -2.82,-3.52 -0.26,-2.09 0.58,-3.93 1.87,-4.09 1.3,-0.16 2.57,1.41 2.83,3.51z"/>
   <path class="fil13" d="M242.11 84.49c-0.24,2.22 -1.55,3.9 -2.92,3.75 -1.38,-0.15 -2.29,-2.08 -2.05,-4.3 0.25,-2.22 1.56,-3.9 2.93,-3.75 1.38,0.16 2.29,2.08 2.04,4.3z"/>
   <path class="fil15" d="M281.19 174.14c-0.62,-0.09 -0.98,-5.88 0.82,-12.77 2.3,-8.75 8.2,-19.76 12.23,-18.97 3.22,0.63 5.73,8.91 2.91,13.18 -2.06,3.11 -5.38,1.72 -9.43,4.99 -6.02,4.86 -5.77,13.7 -6.53,13.57z"/>
   <path class="fil15" d="M273.32 172.37c-1.38,1.63 -9.82,11.29 -24.01,11.91 -16.31,0.71 -26.29,-11.13 -27.37,-12.45 4.6,2.49 15.17,7.39 29.17,6.63 10.1,-0.55 17.82,-3.81 22.21,-6.09z"/>
   <path class="fil16" d="M267.34 185.05l8.17 -7.35 0.53 0 -1.92 25.97c-0.97,-0.03 -2.05,-0.12 -3.22,-0.3 -1.19,-0.18 -2.27,-0.42 -3.21,-0.68 -0.12,-5.88 -0.24,-11.76 -0.35,-17.64z"/>
   <path class="fil16" d="M278.27 180.14l6.79 8.7c-1.47,4.91 -2.93,9.83 -4.4,14.75 -0.35,0.21 -1.01,0.54 -1.9,0.61 -1.19,0.1 -2.09,-0.31 -2.45,-0.51 0.65,-7.85 1.31,-15.7 1.96,-23.55z"/>
   <path class="fil9" d="M281.25 175.88c-0.25,-0.31 -2.01,-2.42 -4.99,-2.51 -3.49,-0.1 -5.52,2.66 -5.67,2.88 1.13,-3.13 1.71,-5.81 2.03,-7.7 0.49,-2.87 1.01,-6.4 0.19,-10.85 -0.35,-1.89 -0.74,-3.99 -2.05,-6.42 -1.6,-2.95 -2.92,-3.36 -3.7,-5.97 -0.28,-0.93 -1.11,-3.69 0.23,-6 1.57,-2.72 5.35,-3.47 7.91,-3.29 3.99,0.29 4.44,2.82 8.78,3.19 3.33,0.29 3.85,-1.13 6.47,-0.41 2.6,0.71 5.28,2.99 5.92,6.05 0.52,2.55 -0.55,4.67 -1.11,5.73 -2.32,4.42 -6.17,5.21 -8.96,7.49 -2.84,2.33 -5.63,7.08 -5.05,17.81z"/>
   <path class="fil17" d="M254.2 196.47c1.29,1.58 9.2,10.88 22.12,11.28 7.21,0.22 12.7,-2.43 15.28,-3.92 0.61,1.07 1.21,2.13 1.81,3.19 -2.03,1.91 -7.6,6.57 -15.73,7.14 -10.13,0.71 -20.14,-5.21 -25.77,-15.1 0.77,-0.87 1.52,-1.73 2.29,-2.59z"/>
   <path class="fil17" d="M294.91 146.01c0.06,-0.48 0.09,-0.88 -0.02,-1.36 -0.15,-0.64 -0.52,-1.21 -0.96,-1.69 -1.51,-1.63 -3.78,-2.99 -6.08,-2.74 -0.76,0.08 -1.5,0.29 -2.27,0.4 -2.13,0.29 -3.9,-0.42 -5.72,-1.41 -1.7,-0.92 -3.73,-1.37 -5.63,-0.84 -1.74,0.48 -3.58,2.1 -3.6,4.04 -0.01,1.34 -0.01,2.39 0.21,3.15 0.63,2.24 1.92,3.41 2.71,4.44 1.43,1.87 1.55,4.18 1.79,8.81 0.16,3.11 0.09,7.69 -1.09,13.26 1.63,0.21 3.26,0.41 4.9,0.62 1.76,-12.31 5.31,-16.51 8.34,-17.99 0,0 5.08,-2.49 6.52,-5.41 0.33,-0.67 0.73,-1.99 0.9,-3.28z"/>
   <path class="fil18" d="M292.7 143.33c-1.04,-1.01 -2.92,-0.69 -4.23,-0.26 -1.12,0.36 -2.2,0.92 -3.13,1.63 -2.94,2.24 -3.38,5.51 -4.86,13.1 -0.64,3.3 -1.67,8.35 -3.11,14.67 0.29,0.03 0.58,0.07 0.87,0.1l0.91 0.12c0.23,-1.76 1.57,-11.73 4.14,-17.67 0.75,-1.74 1.76,-3.66 3.74,-4.17 0.26,-0.07 0.53,-0.11 0.79,-0.13 0.77,-0.06 1.55,-0.03 2.29,-0.25 0.95,-0.28 1.77,-0.92 2.33,-1.73 0.87,-1.25 1.39,-3.19 0.77,-4.65 -0.13,-0.32 -0.3,-0.56 -0.51,-0.76z"/>
   <path class="fil9" d="M278.01 142.79c0.89,1.2 1.01,2.61 0.28,3.15 -0.73,0.54 -2.04,0 -2.92,-1.2 -0.89,-1.2 -1.02,-2.61 -0.28,-3.15 0.73,-0.53 2.04,0 2.92,1.2z"/>
   <path class="fil9" d="M276.75 139.83c0.94,0.55 2.22,1.48 3.15,3.02 1.32,2.19 1.27,4.5 0.55,9.18 -0.91,5.92 -2.07,10.42 -3.27,15.41 -0.71,3 -1.26,5.44 -1.6,6.96 0.43,0.07 0.86,0.13 1.3,0.19 1.82,-7.68 3.04,-13.78 3.82,-17.94 1.09,-5.83 1.75,-10.09 5.24,-12.38 1.93,-1.27 4.05,-1.5 5.54,-1.48 -1.75,-1.22 -3.14,-1.42 -4.13,-1.36 -2.03,0.13 -3.03,1.43 -4.74,0.93 -0.86,-0.26 -0.92,-0.67 -2.1,-1.36 -1.43,-0.84 -2.83,-1.09 -3.76,-1.17z"/>
   <path class="fil19" d="M272.92 143.2c0.06,-0.24 0.31,-0.53 0.45,-0.74 0.26,-0.38 0.55,-0.75 0.89,-1.07 0.81,-0.77 1.89,-1.14 2.89,-0.45 1.27,0.88 1.95,2.64 2.35,4.07 0.45,1.6 0.58,3.3 0.37,4.96 -0.11,0.83 -0.3,1.66 -0.47,2.49 -1.34,6.58 -3.21,13.09 -3.35,19.84 0.48,-2.13 0.98,-4.27 1.49,-6.42 0.45,-1.87 0.83,-3.47 1.15,-4.75 0,0 1.04,-4.24 1.97,-10.53 0.5,-3.42 0.48,-5.15 -0.34,-6.93 -0.76,-1.66 -2.72,-4.35 -4.77,-3.89 -1.88,0.43 -2.59,3.22 -2.63,3.42z"/>
   <path class="fil11" d="M372.52 203.09c-1.11,2.26 -9.72,18.93 -29.14,23.21 -17.3,3.81 -30.67,-4.96 -34.02,-7.24 -13.16,-8.94 -17.46,-21.9 -18.59,-25.76 9.19,16.78 26.36,27.3 44.66,27.17 21.48,-0.15 34.91,-14.91 37.09,-17.38z"/>
   <path class="fil9" d="M290.54 146.79c-0.84,0.85 -1.95,1.1 -2.48,0.57 -0.53,-0.53 -0.28,-1.64 0.56,-2.48 0.85,-0.85 1.96,-1.1 2.49,-0.57 0.53,0.53 0.28,1.64 -0.57,2.48z"/>
   <path class="fil15" d="M339.41 180.73c-1,1.62 -2.65,3.92 -5.19,6.12 0,0 -5.17,4.48 -13,6.14 -9.39,1.98 -22.07,-2.07 -33.04,-11.59 4.51,2.4 15.52,7.45 29.92,6.11 9.75,-0.91 17.11,-4.38 21.31,-6.78z"/>
   <path class="fil9" d="M238.08 323.37c0.74,0.15 1.57,0.33 2.29,-0.15 1.07,-0.72 0.23,-2.02 1.35,-3.46 1.82,-2.37 5.56,-3.35 8.69,-2.65 0.24,0.05 0.51,0.1 0.85,0.24 1.32,0.53 2.44,1.88 5.95,5.54 0.16,0.18 0.33,0.36 0.49,0.52 0.54,-2.44 1.08,-5.14 1.54,-8.09 0.26,-1.65 0.51,-3.36 0.71,-5.14 0.21,-1.79 0.39,-3.64 0.53,-5.57 0.04,-0.47 0.08,-0.93 0.11,-1.42 0.03,-0.45 0.05,-0.92 0.07,-1.4 0.05,-0.79 0.08,-1.58 0.11,-2.39 0.01,-0.36 0.02,-0.72 0.04,-1.09 0,-0.25 0.01,-0.5 0.01,-0.76l0 -0.01c0.01,-0.79 0.03,-1.57 0.03,-2.37l0 -1.3c0,-1.68 0,-3.31 -0.02,-4.88 -0.03,-3.48 -0.15,-7.92 -0.78,-12.28 -0.48,-3.3 -1.47,-7.95 -3.72,-13.41 -5.51,0.56 -9.78,-0.14 -12.56,-0.83 -8.33,-2.06 -14.83,-6.98 -19.95,-10.84 -2.27,-1.72 -3.4,-2.6 -3.91,-3.02 -2.44,-1.98 -3.43,-3 -4.77,-3.8 -0.94,-0.56 -1.73,-0.82 -2.18,-0.99 -13.62,-5.17 -22.51,-2.8 -22.51,-2.8 -1.13,0.31 -10.54,2.91 -12.14,7.57 -0.15,0.43 -0.49,1.62 -1.57,2.58 -1.65,1.47 -3.84,1.34 -4.95,1.39 -4.87,0.21 -9.37,4.89 -11.22,8 -2.69,4.52 -2.09,9.55 -1.35,12.52 3.52,-1.5 7.76,-2.97 12.64,-4.02l0 0c8.74,-1.89 16.27,-1.75 21.57,-1.23l0 0c1.01,-1.18 2.3,-2.43 3.96,-3.52l0 0c6.61,-4.38 14.07,-3.21 16.46,-2.73l0 0c1.41,1.12 3.53,3.08 5.16,6.06l0 0c2.4,4.41 2.41,8.66 2.45,9.96l0 0c0.2,8.69 5.8,30.62 16.62,45.77z"/>
   <path class="fil15" d="M248.67 276.15c1.53,0.16 3.15,0.9 3.17,2.81 0.02,1.35 -1.1,1.85 -2.45,1.97 -1.6,-0.16 -2.99,-0.98 -3.23,-2.67 -0.25,-1.64 1.28,-2.25 2.51,-2.11zm-60.49 -8.64c1.93,0.05 3.69,0.16 5.25,0.32l0 0c1.01,-1.18 2.3,-2.43 3.96,-3.52l0 0c6.61,-4.38 14.07,-3.21 16.46,-2.73l0 0c1.31,1.04 3.24,2.81 4.81,5.45 1.02,0.06 2.35,0.23 4.04,0.61 8.45,1.9 11.91,5.96 14.65,6.86 0.26,0.09 1.22,0.4 1.48,1.14 0.06,0.18 0.07,0.38 0.02,0.63 -0.19,0.91 -1.09,1.2 -1.94,1.39 -5.16,1.16 -10.31,1.15 -15.44,0.3 0.07,1.84 0.36,4.22 0.88,6.96 1.73,-0.15 3.02,-0.57 3.27,-0.65 1.24,-0.41 2.86,-1.18 5.48,-1.46 1.05,-0.13 1.9,-0.13 2.47,-0.1 -0.61,0.51 -1.31,1.05 -2.11,1.56 -2.61,1.67 -4.99,2.26 -5.84,2.48l-2.75 0.72c0.17,0.75 0.35,1.52 0.54,2.31 6.97,-2.23 14.01,-4.24 20.99,-6.47 0.1,-0.05 0.41,-0.16 0.82,-0.2 0.14,-0.01 0.29,-0.02 0.44,-0.02 0.27,-0.02 0.53,0 0.79,0.05 0.22,0.04 0.44,0.1 0.66,0.15 0.43,0.13 0.86,0.3 1.3,0.48 4.14,1.76 8.29,3.48 12.42,5.22 0.12,-1.87 0.1,-4.02 -0.2,-6.37 -0.78,-6.18 -3.1,-10.94 -4.94,-13.95 -0.43,0.15 -1.07,0.35 -1.85,0.52 -1.08,0.24 -4.4,0.85 -9.16,-0.35 -4.63,-1.17 -9.34,-3.82 -12.88,-4.64 -0.05,-0.01 -0.17,-0.04 -0.35,-0.08 -0.79,-0.19 -2.6,-0.66 -4.85,-1.54 -0.63,-0.25 -1.29,-0.54 -2.01,-0.9 -2.83,-1.39 -4,-2.59 -6.48,-3.02 -1.84,-0.3 -3.77,-0.21 -5.8,0.32 -0.72,0.01 -1.8,0.06 -3.1,0.18 0,0 -5.04,0.46 -9.78,1.94 -5.43,1.69 -8.12,4.07 -11.25,6.41zm37.93 31.53c0.36,1.05 0.73,2.1 1.12,3.16 2.36,-0.89 5.53,-1.85 9.43,-2.44 1.74,0.05 3.65,-1.21 5.14,0.56 0.02,0.02 0.03,0.03 0.04,0.05 0.05,0.04 0.07,0.08 0.11,0.13 0.04,-0.02 0.1,-0.05 0.14,-0.08 1.85,-1.13 3.69,-2.26 5.53,-3.39 0.02,-0.06 0.03,-0.13 0.04,-0.18 0.64,-2.84 -1.82,-1.41 -2.57,-1.35 -6.46,0.45 -12.91,1.54 -18.98,3.54zm2.04 5.55c1.89,4.78 4.17,9.6 6.85,14.07 0.84,-0.42 1.83,-0.79 3.07,-2.35 0.76,-0.97 1.37,-2.08 2.9,-3.29 0.48,-0.37 0.99,-0.72 1.56,-1.03 5.13,-2.83 9.66,-3.1 14.11,1.41 0.75,0.76 1.64,1.36 2.6,1.92 0.26,-1.65 0.51,-3.36 0.71,-5.14 -0.47,-0.71 -0.8,-1.52 -0.95,-2.46 -0.7,-4.12 -3.29,-4.37 -6.58,-3.56 -0.47,0.12 -0.96,0.23 -1.5,0.36 -0.44,0.11 -0.88,0.22 -1.32,0.33 -0.05,0.01 -0.08,0.03 -0.12,0.03 -1.88,0.46 -3.79,0.93 -5.68,1.4l-0.01 0c-0.13,0.03 -0.22,0.06 -0.35,0.08l0 0.02 -0.01 0 -0.01 0.01c-1.84,1.26 -4.1,2.11 -5.16,4.14 -0.84,1.6 -2.12,2.45 -2.38,2.3 -0.4,-0.24 1.18,-3.53 1.5,-4.2 1.05,-2.2 2.68,-5.21 5.17,-8.65 -1.31,0.77 -3.35,1.82 -6,2.64 -3.92,1.21 -5.5,0.76 -8.4,1.97z"/>
   <path class="fil12" d="M218.21 266.31c4.91,0.57 8.66,2.27 13.85,4.62 4.58,2.07 4.27,2.45 5.76,2.67 0.43,0.06 1.43,0.17 1.84,0.88 0.36,0.6 0.2,1.48 -0.2,2.05 -0.62,0.89 -1.79,1.02 -2.55,1.14 -3.57,0.52 -3.32,1.23 -6.2,1.59 -3.48,0.43 -6.9,-0.25 -9.22,-0.91 -0.02,-0.26 -0.03,-0.51 -0.03,-0.75l0 0c-0.04,-1.3 -0.05,-5.55 -2.45,-9.96l0 0c-0.26,-0.47 -0.53,-0.92 -0.8,-1.33z"/>
   <path class="fil15" d="M179.27 267.23c2.52,-1.31 4.25,-3 5.33,-4.22 -0.59,-0.13 -1.28,-0.22 -2.06,-0.21 -2.48,0.05 -4.33,1.16 -5.21,1.79 0,0 0,0 0,0 -3.49,2.03 -7.86,4.32 -10.44,2.82 -0.51,-0.3 -0.86,-0.5 -0.95,-0.9 -0.64,-2.77 13.72,-5.67 26.83,-12.38 1.47,-0.76 5.05,-2.57 9.34,-1.89 1.29,0.21 2.63,0.67 4.03,1.51 -2.48,0.08 -5.99,0.45 -9.88,1.86 -7.18,2.6 -11.71,7.33 -11.66,7.4 0.04,0.06 3.49,-3.32 9.58,-6.05 1.55,-0.7 5.42,-2.31 10.71,-3.15 4.11,-0.64 7.64,-0.59 10.25,-0.38 -1.32,-1.11 -3.24,-2.57 -5.76,-3.94 -2.71,-1.46 -13.34,-7.21 -20.89,-3.21 -5.1,2.7 -3.62,7.11 -9.27,9.51 -4.02,1.7 -6.16,0.06 -10.69,2.46 0,0 -4.15,2.2 -5.79,5.66 -0.02,0.04 -0.04,0.08 -0.04,0.08 -0.12,0.27 -0.34,0.87 -0.45,2.22 -0.1,1.25 -0.11,3.14 0.45,5.5 2.73,-1 5.79,-1.92 9.16,-2.65l0 0c1.85,-0.4 3.65,-0.71 5.38,-0.94 0.64,-0.23 1.31,-0.51 2.03,-0.89z"/>
   <path class="fil12" d="M184.6 263.01c2.87,-2.11 6.95,-4.64 12.22,-6.58 7.46,-2.74 14.08,-3.11 18.32,-3 -2.98,-1.12 -7.65,-2.42 -13.27,-1.96 -3.49,0.29 -5.86,1.13 -9.1,2.26 -21.27,7.44 -25.14,8.23 -27.69,12.87 -0.54,0.99 -1.25,2.57 -1.61,4.83 2.53,-0.89 5.33,-1.71 8.39,-2.37l0 0c2.33,-0.5 4.57,-0.86 6.7,-1.11 0.3,-0.14 0.62,-0.29 0.94,-0.47 2.46,-1.37 4.1,-3.16 5.1,-4.47z"/>
   <path class="fil13" d="M248.16 296.54c-1.98,1.22 -3.96,2.43 -5.94,3.65 -1.37,0.68 -2.73,1.36 -4.1,2.04 -0.49,0.48 -0.98,0.96 -1.47,1.44 0,2.47 0.63,4.01 3.63,2.9 1.04,-0.38 2.3,-0.15 3.46,-0.2 0,0 0.03,-0.02 0.03,-0.02 0.98,-3.18 4.56,-2.86 6.49,-4.84 1.18,-1.2 3.61,-1.73 3.05,-3.81 -0.57,-2.06 -2.8,-0.78 -4.27,-1.1 -0.29,-0.07 -0.59,-0.04 -0.88,-0.06z"/>
   <path class="fil12" d="M249.59 304.85c-3.5,0.34 -6.29,0.78 -8.22,1.12 -1.91,0.34 -2.95,0.57 -3.26,0.11 -0.61,-0.9 2.04,-3.77 4.44,-6.09 -1.85,0.98 -3.48,1.62 -4.74,2.04 -2.22,0.74 -3.41,0.86 -6.2,1.63 -1.29,0.36 -2.44,0.73 -3.41,1.06 0.17,0.43 0.34,0.85 0.51,1.27 1.3,0.64 2.59,1.57 3.56,2.97 1.64,2.36 1.52,4.87 2.78,5.13 1.12,0.24 2.38,-1.48 3.08,-2.51 1.47,-2.13 4.5,-4.79 11.46,-6.73z"/>
   <path class="fil15" d="M246.29 270.48c-0.71,-0.9 -1.79,-1.09 -2.8,-1.41l-0.03 0.03c0.29,0.47 0.58,0.94 0.87,1.41 0.53,0.11 1.05,0.23 1.57,0.35 0.13,-0.13 0.26,-0.25 0.39,-0.38z"/>
   <path class="fil12" d="M226.36 299.75c3.85,-0.62 6.48,-2.35 11.7,-2.76 3.07,-0.25 4.35,0.16 6.42,-0.83 0.7,-0.34 1.9,-1.03 2.61,-0.55 0.38,0.26 0.49,0.8 0.52,1.26 0.01,0.06 0.01,0.1 0.01,0.16 2.11,-0.51 3.84,-0.33 4.4,0.26 0.38,0.39 0.51,0.84 0.51,0.84 0,0 0.14,0.47 0.03,0.98 -0.25,1.17 -3.38,2.04 -5.34,3.21 -0.95,0.57 -2.15,1.52 -3.27,3.22 -0.18,0.26 -0.34,0.53 -0.51,0.82 0.13,-0.04 0.25,-0.06 0.36,-0.1 1.99,-0.59 3.82,-1.01 5.42,-1.37l0.02 0c0.59,-0.14 1.14,-0.26 1.68,-0.37 0.54,-0.13 1.03,-0.24 1.5,-0.36 3.28,-0.81 5.88,-0.56 6.58,3.56 0.15,0.94 0.48,1.75 0.95,2.46 0.21,-1.79 0.39,-3.64 0.53,-5.57 0.04,-0.47 0.08,-0.93 0.11,-1.42 0.02,-0.45 0.05,-0.92 0.07,-1.41 0.05,-0.78 0.08,-1.57 0.1,-2.38 0.02,-0.36 0.03,-0.72 0.05,-1.09 0,-0.25 0.01,-0.5 0.01,-0.76l0 -0.01c0.01,-0.79 0.03,-1.57 0.03,-2.37l0 -1.3c0,-1.68 0,-3.31 -0.02,-4.88 -4.13,-1.74 -8.28,-3.46 -12.42,-5.22 -0.44,-0.18 -0.87,-0.35 -1.3,-0.48 -0.22,-0.05 -0.44,-0.11 -0.66,-0.15 -0.26,-0.04 -0.52,-0.07 -0.79,-0.05 -0.15,0 -0.3,0.01 -0.44,0.02 -0.41,0.04 -0.72,0.15 -0.82,0.2 -2.6,0.79 -8.67,1.35 -19.95,5.07 -0.45,0.15 -0.87,0.3 -1.27,0.43 0.79,3.37 1.85,7.09 3.18,10.94z"/>
   <path class="fil12" d="M260.59 303.19c0.02,-0.45 0.05,-0.92 0.07,-1.4 -0.14,0.46 -0.17,0.93 -0.07,1.4z"/>
   <path class="fil12" d="M242.02 286.79c2.03,0.47 4.99,-1 5.43,2 0.41,2.73 -2.62,3.23 -4.42,3.67 -5.58,1.36 -11.2,2.7 -16.99,2.93 -0.34,0.02 -0.72,0.05 -1.08,0.05 -0.35,-1.17 -0.68,-2.32 -0.98,-3.44 0.33,-0.24 0.73,-0.43 1.14,-0.59 5.49,-2.19 10.98,-4.41 16.9,-4.62z"/>
   <path class="fil12" d="M258.24 298.39c0.82,-0.11 1.96,-0.15 2.58,-0.84l0 -0.01c0.01,-0.79 0.03,-1.57 0.03,-2.37l0 -0.48c-0.47,-0.85 -1.32,-1.36 -2.13,-1.77 -1.9,0.12 -2.46,1.16 -2.51,2.56 -0.02,1.47 0.06,3.15 2.03,2.91z"/>
   <path class="fil12" d="M249.39 280.94c1.35,-0.13 2.47,-0.63 2.45,-1.98 -0.02,-1.91 -1.64,-2.64 -3.17,-2.82 -1.23,-0.14 -2.75,0.47 -2.52,2.11 0.25,1.71 1.64,2.52 3.24,2.69z"/>
   <path class="fil13" d="M260.34 304.43c0.05,0.06 0.1,0.13 0.14,0.19 0.04,-0.48 0.08,-0.94 0.11,-1.42 0.03,-0.46 0.05,-0.93 0.07,-1.42 0.05,-0.78 0.08,-1.57 0.11,-2.38 -0.03,0.03 -0.06,0.07 -0.09,0.1 -1.2,1.51 -1.67,3.29 -0.34,4.93z"/>
   <path class="fil13" d="M242.6 286.42c-6.43,0.22 -12.39,2.63 -18.35,5.01 -0.13,0.05 -0.25,0.1 -0.38,0.16 0.36,1.36 0.76,2.75 1.19,4.18l0.19 -0.01c6.28,-0.25 12.38,-1.71 18.44,-3.18 1.96,-0.48 5.24,-1.03 4.8,-3.99 -0.48,-3.26 -3.7,-1.66 -5.89,-2.17z"/>
   <path class="fil13" d="M258.15 298.95c0.81,-0.1 1.88,-0.15 2.66,-0.64 0,-0.25 0.01,-0.49 0.01,-0.76l0 -0.01c0.02,-0.79 0.03,-1.57 0.03,-2.37l0 -1.3c-0.58,-0.66 -1.37,-1.12 -2.12,-1.52 -2.31,0.15 -2.98,1.39 -3.03,3.11 -0.04,1.75 0.06,3.78 2.45,3.49z"/>
   <path class="fil9" d="M299.78 279.14c0.79,1.16 2.18,3.55 2.58,6.89 0.38,3.09 -0.26,5.56 -0.7,6.87 -3.9,1.35 -9.35,2.71 -15.91,2.72 -13.94,0.03 -24.18,-6.04 -28.52,-9 -2.1,1.46 -4.21,2.92 -6.31,4.38 9.61,3.03 12.21,6.49 12.77,9.11 0.51,2.42 -0.39,4.7 1.4,7.63 1.4,2.29 2.83,2.29 3.98,4.67 1.08,2.21 0.43,3.43 0.72,6.48 0.48,5.14 2.7,6.48 3.33,9.88 0.53,2.88 -0.12,7.28 -5.93,13.65 -1.98,-0.28 -4.48,-0.81 -7.23,-1.87 -2.47,-0.95 -4.51,-2.07 -6.07,-3.08 -0.21,1.22 -0.82,3.81 -2.88,6.31 -1.83,2.23 -3.93,3.33 -5.05,3.81 -4.11,-2.05 -7.39,-3.89 -9.74,-5.28 -1.44,-0.85 -2.58,-1.55 -3.81,-2.81 -1.18,-1.21 -3.37,-3.45 -3.52,-6.46 -0.14,-2.62 1.33,-4.2 0.52,-4.99 -0.81,-0.8 -2.53,0.61 -3.87,-0.29 -1.07,-0.72 -0.24,-2.02 -1.35,-3.47 -1.83,-2.37 -5.57,-3.33 -8.69,-2.64 -0.25,0.05 -0.51,0.1 -0.85,0.24 -1.33,0.53 -2.44,1.88 -5.95,5.54 -0.16,0.18 -0.33,0.35 -0.5,0.52 -0.53,-2.44 -1.07,-5.15 -1.53,-8.1 -0.26,-1.64 -0.51,-3.35 -0.72,-5.13 -0.2,-1.79 -0.38,-3.64 -0.52,-5.57 -0.04,-0.47 -0.08,-0.94 -0.11,-1.42 -0.03,-0.46 -0.06,-0.92 -0.07,-1.41 -0.05,-0.78 -0.08,-1.57 -0.11,-2.38 -0.01,-0.36 -0.03,-0.72 -0.04,-1.09 0,-0.25 -0.01,-0.5 -0.01,-0.76l0 -0.01c-0.02,-0.79 -0.03,-1.58 -0.03,-2.38l0 -1.29c0,-1.68 0,-3.31 0.01,-4.88 0.03,-3.48 0.16,-7.92 0.79,-12.28 0.47,-3.3 1.47,-7.95 3.72,-13.42 5.5,0.56 9.78,-0.13 12.56,-0.82 8.33,-2.07 14.83,-6.98 19.95,-10.85 2.27,-1.71 3.39,-2.59 3.91,-3.01 2.44,-1.98 3.43,-3 4.77,-3.8 0.94,-0.56 1.72,-0.82 2.17,-0.99 13.63,-5.17 22.51,-2.8 22.51,-2.8 1.14,0.31 10.55,2.91 12.15,7.57 0.15,0.43 0.49,1.62 1.56,2.58 1.66,1.47 3.85,1.34 4.96,1.38 4.87,0.22 9.37,4.9 11.22,8.01 3.8,6.39 1.03,13.8 0.57,14.97 -2.04,-0.31 -4.08,-0.62 -6.13,-0.93z"/>
   <path class="fil15" d="M219.75 282.8c-0.24,1.69 -1.63,2.51 -3.23,2.67 -1.35,-0.12 -2.47,-0.62 -2.45,-1.97 0.02,-1.92 1.64,-2.65 3.17,-2.81 1.22,-0.14 2.76,0.46 2.51,2.11zm71.77 -3.88c-1.58,-1.11 -2.91,-1.45 -4.26,-1.87 -10.14,-3.22 -11.15,-8.41 -20.79,-11.42 -4.73,-1.47 -9.77,-1.93 -9.77,-1.93 -1.3,-0.12 -2.38,-0.17 -3.11,-0.18 -2.02,-0.53 -3.96,-0.62 -5.79,-0.32 -2.48,0.43 -3.65,1.62 -6.48,3.02 -0.72,0.36 -1.38,0.65 -2.02,0.89 -2.24,0.89 -4.06,1.36 -4.84,1.55 -0.18,0.04 -0.31,0.07 -0.35,0.08 -3.54,0.82 -8.25,3.47 -12.89,4.64 -4.75,1.2 -8.07,0.59 -9.15,0.35 -0.79,-0.17 -1.42,-0.37 -1.85,-0.52 -1.84,3.01 -4.17,7.77 -4.95,13.95 -0.29,2.35 -0.31,4.5 -0.2,6.37 4.14,-1.74 8.29,-3.46 12.43,-5.22 0.44,-0.18 0.87,-0.35 1.29,-0.48 0.23,-0.06 0.45,-0.11 0.67,-0.15 0.26,-0.06 0.52,-0.07 0.78,-0.06 0.16,0 0.31,0.02 0.45,0.03 0.41,0.04 0.71,0.15 0.82,0.19 7.66,2.46 15.39,4.64 23.03,7.13 2.14,0.69 5.41,1.69 3.67,4.82 -0.97,1.78 -1.71,4.29 -4.16,4.65 -0.09,0 -0.15,0.01 -0.24,0.01 -0.12,0.01 -0.26,0.01 -0.38,0.03l-0.06 0c-0.66,-0.02 -1.43,-0.15 -2.33,-0.47 -6.42,-2.28 -13.32,-3.49 -20.22,-3.97 -0.76,-0.06 -3.21,-1.49 -2.58,1.35 0.02,0.05 0.03,0.12 0.05,0.18 1.84,1.13 3.68,2.26 5.52,3.39 0.05,0.03 0.1,0.06 0.14,0.08 0.04,-0.05 0.07,-0.09 0.11,-0.14 0.02,-0.01 0.03,-0.02 0.04,-0.04 1.5,-1.78 3.41,-0.51 5.15,-0.56 4.5,0.67 8.01,1.85 10.45,2.84 3.17,1.29 4.32,2.2 4.68,2.5 0.74,0.6 3.92,3.33 4.84,7.85 0.6,2.94 -0.43,3.34 0.18,6.95 0.31,1.88 0.7,4.19 2.29,6.25 1.29,1.69 2.64,2.22 9.24,5.11 2.71,1.18 4.83,2.11 5.81,2.55 0.87,-1.3 3.76,-5.81 3.17,-9.13 -0.11,-0.59 -0.28,-1.22 -0.28,-1.22 -0.4,-1.31 -1.04,-2.24 -2.07,-4.76 -1.9,-4.66 -0.64,-4.99 -2.23,-8.81 -1.84,-4.4 -3.72,-4.44 -5.28,-8.92 -1.31,-3.74 -0.1,-4.01 -1.18,-6.1 -1.97,-3.82 -7.51,-5.25 -18.59,-8.12 -0.85,-0.22 -3.22,-0.81 -5.83,-2.48 -0.8,-0.51 -1.5,-1.05 -2.11,-1.56 0.56,-0.03 1.42,-0.03 2.47,0.1 2.62,0.27 4.23,1.05 5.47,1.46 0.49,0.15 4.77,1.53 8.59,-0.06 4.06,-1.68 7.03,-6.49 6.06,-8 -0.1,-0.15 -0.21,-0.24 -0.32,-0.31 -1.64,-0.36 -2.55,0.88 -3.69,1.65 -1.29,0.89 -2.65,1.71 -3.92,-0.08 -5.99,1.31 -11.99,1.54 -18,0.19 -0.85,-0.19 -1.75,-0.48 -1.94,-1.39 -0.06,-0.25 -0.04,-0.46 0.02,-0.63 0.26,-0.74 1.22,-1.05 1.48,-1.14 2.74,-0.91 6.2,-4.96 14.64,-6.86 4.18,-0.94 6.14,-0.58 6.7,-0.47 2.31,0.47 4.02,1.53 5.04,2.29 2.54,3.32 7.5,8.77 15.5,12.09 2.86,1.19 5.55,1.87 7.87,2.26 3.62,0.72 7.96,1.25 12.86,1.18 2.21,-0.02 4.29,-0.17 6.21,-0.39 -0.68,-3.32 -2.16,-7.62 -5.86,-10.22zm-43.69 52c-2.88,-4.22 -3.33,-10.26 -3.51,-12.61 -0.17,-2.25 0.06,-2.78 -0.47,-4.05 -1.15,-2.74 -3.83,-4.07 -5.4,-4.82 -3.36,-1.6 -4.87,-0.98 -9.1,-2.28 -2.64,-0.82 -4.68,-1.88 -5.99,-2.64 2.49,3.44 4.12,6.45 5.17,8.65 0.32,0.67 1.9,3.96 1.5,4.2 -0.26,0.15 -1.54,-0.7 -2.38,-2.3 -1.06,-2.03 -3.32,-2.88 -5.16,-4.14l-0.01 -0.01 -0.01 0 0 -0.02c-0.13,-0.02 -0.23,-0.05 -0.35,-0.08l-0.01 0c-1.89,-0.47 -3.8,-0.94 -5.69,-1.41 -0.04,0 -0.07,-0.01 -0.11,-0.02 -0.44,-0.11 -0.88,-0.22 -1.32,-0.33 -0.54,-0.13 -1.03,-0.24 -1.51,-0.36 -3.28,-0.82 -5.87,-0.55 -6.57,3.56 -0.16,0.93 -0.49,1.75 -0.96,2.46 0.21,1.78 0.46,3.49 0.72,5.14 0.95,-0.56 1.85,-1.17 2.6,-1.92 4.45,-4.51 8.97,-4.24 14.1,-1.41 0.58,0.31 1.09,0.66 1.56,1.03 1.54,1.2 2.15,2.32 2.91,3.29 2.08,2.63 3.48,1.87 4.62,3.68 1.62,2.55 -0.79,4.38 0.12,8.33 0.99,4.28 4.97,6.85 6.81,8.04 2.66,1.72 5.2,2.4 6.81,2.7 0.74,-0.61 3.25,-2.84 3.58,-6.16 0.12,-1.21 -0.08,-2.27 -0.14,-2.57 -0.41,-2.02 -1.4,-3.36 -1.81,-3.95z"/>
   <path class="fil12" d="M247 282.02c-1.43,0.55 -6.54,2.43 -11.81,1.78 -2.87,-0.36 -2.63,-1.08 -6.19,-1.6 -0.77,-0.11 -1.93,-0.24 -2.55,-1.13 -0.4,-0.57 -0.57,-1.45 -0.21,-2.05 0.42,-0.71 1.42,-0.82 1.85,-0.89 1.49,-0.21 1.18,-0.6 5.75,-2.67 5.24,-2.36 9.02,-4.07 14,-4.63 3.04,-0.34 4.36,-0.01 4.99,0.17 3.2,0.97 4.97,3.41 6.04,4.76 3.88,4.84 9.39,8.82 13.68,10.68 3.35,1.45 7.22,1.75 14.96,2.35 4.06,0.31 7.46,0.36 9.86,0.35 -1.77,0.5 -4.44,1.13 -7.74,1.41 -3.32,0.28 -13.18,1.11 -21.95,-4.11 -6.9,-4.1 -10.51,-7.1 -10.51,-7.1 -1.66,-1.39 -4.21,-3.65 -5.57,-2.89 -0.9,0.49 -0.58,1.92 -1.9,3.58 -0.87,1.09 -1.95,1.67 -2.7,1.99z"/>
   <path class="fil15" d="M286.63 271.77c-2.51,-1.31 -4.24,-3 -5.32,-4.22 0.58,-0.13 1.28,-0.23 2.06,-0.21 2.48,0.05 4.33,1.16 5.21,1.79 0,0 0,0 0,0 3.49,2.03 7.86,4.32 10.43,2.82 0.51,-0.3 0.87,-0.51 0.96,-0.9 0.64,-2.77 -13.72,-5.67 -26.83,-12.38 -1.48,-0.76 -5.05,-2.57 -9.35,-1.89 -1.29,0.2 -2.62,0.67 -4.02,1.51 2.48,0.08 5.99,0.45 9.87,1.86 7.19,2.6 11.72,7.33 11.67,7.4 -0.05,0.06 -3.49,-3.32 -9.58,-6.05 -1.56,-0.7 -5.42,-2.32 -10.71,-3.15 -4.11,-0.64 -7.65,-0.59 -10.25,-0.38 1.32,-1.12 3.24,-2.58 5.76,-3.94 2.71,-1.46 13.34,-7.21 20.89,-3.21 5.1,2.7 3.62,7.11 9.27,9.5 4.02,1.71 6.16,0.07 10.68,2.47 0,0 4.16,2.2 5.8,5.65 0.02,0.04 0.04,0.09 0.04,0.09 0.11,0.27 0.33,0.87 0.44,2.22 0.13,1.57 0.12,4.15 -0.99,7.41 -3.85,-2.42 -7.16,-3.63 -9.51,-4.28 -2.35,-0.65 -4.11,-0.86 -6.52,-2.11z"/>
   <path class="fil12" d="M281.31 267.55c-2.87,-2.11 -6.95,-4.64 -12.22,-6.58 -7.46,-2.74 -14.08,-3.11 -18.32,-3 2.98,-1.12 7.65,-2.42 13.27,-1.96 3.49,0.28 5.85,1.12 9.1,2.26 21.27,7.44 25.13,8.23 27.69,12.87 0.7,1.28 1.69,3.56 1.83,7.02 -3.99,-2.27 -7.38,-3.41 -9.78,-4.03 -2.35,-0.61 -4.15,-0.83 -6.47,-2.12 -2.46,-1.36 -4.1,-3.15 -5.1,-4.46z"/>
   <path class="fil13" d="M217.75 301.08c1.98,1.22 3.96,2.43 5.94,3.65 1.37,0.68 2.73,1.36 4.09,2.04 0.5,0.48 0.99,0.95 1.48,1.43 0,2.48 -0.63,4.02 -3.64,2.91 -1.03,-0.38 -2.3,-0.15 -3.45,-0.2 0,0 -0.03,-0.03 -0.03,-0.03 -0.98,-3.17 -4.56,-2.85 -6.49,-4.83 -1.18,-1.2 -3.62,-1.73 -3.05,-3.81 0.57,-2.06 2.8,-0.78 4.27,-1.1 0.28,-0.07 0.59,-0.04 0.88,-0.06z"/>
   <path class="fil12" d="M216.32 309.39c3.5,0.34 6.29,0.78 8.22,1.12 1.91,0.34 2.95,0.57 3.26,0.11 0.61,-0.91 -2.04,-3.77 -4.44,-6.1 1.85,0.99 3.48,1.63 4.73,2.05 2.23,0.74 3.42,0.85 6.21,1.63 1.98,0.55 3.61,1.12 4.81,1.57 -1.82,0.57 -4.02,1.63 -5.47,3.72 -1.65,2.37 -1.52,4.88 -2.78,5.14 -1.12,0.24 -2.38,-1.48 -3.08,-2.51 -1.47,-2.13 -4.5,-4.79 -11.46,-6.73z"/>
   <path class="fil15" d="M219.62 275.02c0.71,-0.91 1.79,-1.09 2.8,-1.41l0.03 0.03c-0.29,0.47 -0.59,0.94 -0.88,1.41 -0.52,0.11 -1.04,0.23 -1.56,0.35 -0.14,-0.13 -0.26,-0.25 -0.39,-0.38z"/>
   <path class="fil12" d="M249.52 302.31c-0.2,0.36 -1.11,1.77 -5.47,2.13 -0.09,0 -0.15,0.01 -0.24,0.01 -0.12,0.01 -0.26,0.01 -0.38,0.03l-0.06 0c-6.34,0.33 -8.77,-2.42 -15.53,-2.95 -3.06,-0.25 -4.34,0.16 -6.41,-0.83 -0.7,-0.35 -1.9,-1.04 -2.61,-0.55 -0.38,0.26 -0.49,0.8 -0.52,1.26 -0.01,0.06 -0.01,0.1 -0.01,0.16 -2.12,-0.52 -3.84,-0.33 -4.41,0.26 -0.37,0.39 -0.5,0.84 -0.5,0.84 0,0 -0.14,0.47 -0.03,0.98 0.25,1.17 3.38,2.04 5.34,3.21 0.95,0.57 2.15,1.52 3.26,3.22 0.18,0.26 0.35,0.53 0.52,0.82 -0.13,-0.04 -0.25,-0.07 -0.36,-0.11 -1.99,-0.58 -3.82,-1 -5.43,-1.36l-0.01 0c-0.59,-0.14 -1.14,-0.26 -1.68,-0.37 -0.54,-0.13 -1.03,-0.24 -1.5,-0.36 -3.29,-0.82 -5.88,-0.56 -6.58,3.56 -0.16,0.93 -0.49,1.75 -0.95,2.46 -0.21,-1.79 -0.39,-3.64 -0.53,-5.57 -0.04,-0.47 -0.08,-0.93 -0.11,-1.42 -0.03,-0.45 -0.05,-0.92 -0.07,-1.41 -0.05,-0.78 -0.08,-1.57 -0.11,-2.38 -0.01,-0.36 -0.03,-0.72 -0.04,-1.09 0,-0.25 -0.01,-0.5 -0.01,-0.76l0 -0.01c-0.02,-0.79 -0.03,-1.58 -0.03,-2.37l0 -1.3c0,-1.69 0,-3.31 0.01,-4.88 4.14,-1.74 8.29,-3.47 12.43,-5.22 0.44,-0.18 0.87,-0.35 1.3,-0.48 0.22,-0.06 0.44,-0.11 0.66,-0.15 0.26,-0.04 0.52,-0.07 0.78,-0.06 0.16,0 0.31,0.02 0.45,0.03 0.41,0.04 0.71,0.15 0.82,0.19 2.59,0.8 8.66,1.36 19.94,5.08 4.57,1.52 6.2,2.29 7.34,4.05 0.08,0.15 1.99,3.16 0.73,5.34z"/>
   <path class="fil12" d="M205.32 307.73c-0.03,-0.45 -0.05,-0.92 -0.07,-1.41 0.14,0.47 0.17,0.94 0.07,1.41z"/>
   <path class="fil12" d="M223.88 291.33c-2.02,0.47 -4.98,-1 -5.43,2 -0.4,2.73 2.63,3.23 4.43,3.67 5.58,1.36 11.2,2.7 16.98,2.93 1.08,0.04 2.42,0.32 2.84,-1.16 0.45,-1.6 -0.69,-2.34 -1.91,-2.82 -5.49,-2.19 -10.98,-4.41 -16.91,-4.62z"/>
   <path class="fil12" d="M207.67 302.93c-0.82,-0.11 -1.96,-0.15 -2.58,-0.84l0 -0.01c-0.02,-0.79 -0.03,-1.58 -0.03,-2.38l0 -0.48c0.47,-0.84 1.32,-1.35 2.12,-1.76 1.91,0.12 2.47,1.16 2.51,2.56 0.03,1.46 -0.05,3.15 -2.02,2.91z"/>
   <path class="fil12" d="M216.52 285.48c-1.36,-0.13 -2.47,-0.63 -2.45,-1.98 0.02,-1.91 1.64,-2.64 3.16,-2.82 1.24,-0.14 2.76,0.47 2.52,2.11 -0.24,1.71 -1.63,2.52 -3.23,2.69z"/>
   <path class="fil13" d="M205.57 308.97c-0.06,0.06 -0.1,0.13 -0.14,0.18 -0.04,-0.47 -0.08,-0.94 -0.11,-1.42 -0.03,-0.45 -0.06,-0.92 -0.07,-1.4 -0.05,-0.79 -0.08,-1.58 -0.11,-2.39 0.03,0.03 0.06,0.07 0.08,0.09 1.2,1.52 1.67,3.3 0.35,4.94z"/>
   <path class="fil13" d="M223.31 290.96c6.43,0.22 12.39,2.63 18.34,5.01 1.33,0.53 2.57,1.33 2.08,3.06 -0.46,1.61 -1.91,1.31 -3.08,1.27 -6.28,-0.25 -12.37,-1.71 -18.43,-3.19 -1.96,-0.47 -5.24,-1.02 -4.8,-3.98 0.48,-3.26 3.7,-1.66 5.89,-2.17z"/>
   <path class="fil13" d="M207.76 303.48c-0.81,-0.09 -1.89,-0.15 -2.66,-0.63 0,-0.25 -0.01,-0.5 -0.01,-0.76l0 -0.01c-0.02,-0.79 -0.03,-1.58 -0.03,-2.38l0 -1.29c0.58,-0.66 1.36,-1.12 2.12,-1.52 2.31,0.15 2.98,1.39 3.02,3.1 0.04,1.76 -0.05,3.78 -2.44,3.49z"/>
   <path class="fil20 str0" d="M353.06 258.78c0,0 10.48,-27.76 32.32,-34.19 21.85,-6.43 72.92,1.72 79.07,-23.99 6.14,-25.71 -18.55,-45.86 -35.79,-42.89 -17.24,2.97 -18.57,17.68 -26.6,14.26 -8.03,-3.42 -50.76,-29.23 -32.37,-50.15 18.38,-20.92 66.29,-35.18 102.38,-12.61 36.09,22.57 82.84,54.46 63.34,105.75 -19.49,51.29 -48.61,57.1 -81.3,51.85 -32.69,-5.24 -38.48,28.61 -49.95,26.12 -11.47,-2.48 -55.21,-25.67 -51.1,-34.15z"/>
   <path class="fil20 str0" d="M314.22 297.53c15.01,-16.58 33.82,-20.61 50.92,-9.18 17.1,11.42 25.67,29.43 15.79,53.53 -7.54,18.39 -38.62,17.64 -55.72,6.21 -17.09,-11.42 -24.32,-35.84 -10.99,-50.56z"/>
   <path class="fil20 str0" d="M97.67 175.44c0,0 -1.2,-17.84 -12.68,-25.36 -11.48,-7.52 -42.37,-11.73 -41.43,-27.63 0.94,-15.91 18.7,-23.23 28.13,-18.5 9.43,4.72 7.62,13.44 12.85,12.87 5.24,-0.58 34.39,-8.01 27.44,-23.29 -6.96,-15.27 -32.11,-31.86 -56.87,-25.14 -24.75,6.72 -57.29,16.97 -54.99,49.96 2.29,32.99 18.08,41.42 37.85,44.1 19.78,2.67 17.21,23.21 24.26,23.78 7.05,0.57 36.33,-5.18 35.44,-10.79z"/>
   <path class="fil20 str0" d="M113.52 205.13c-6.84,9.6 -12.48,18.77 -17.05,27.12 -11.8,2.71 -28.3,-2.35 -29.37,-13.74 -1.51,-15.63 6.57,-24.5 18.45,-28.11 11.85,-3.61 22,2 27.75,14.18 0.08,0.19 0.16,0.35 0.22,0.55z"/>
   <path class="fil21" d="M350.29 254.23c0,0 10.48,-27.75 32.32,-34.18 21.85,-6.44 72.92,1.72 79.07,-23.99 6.14,-25.72 -18.55,-45.87 -35.79,-42.9 -17.24,2.97 -18.56,17.68 -26.59,14.27 -8.04,-3.42 -50.77,-29.24 -32.38,-50.15 18.38,-20.93 66.29,-35.18 102.38,-12.62 36.09,22.57 82.84,54.47 63.35,105.76 -19.5,51.29 -48.62,57.1 -81.31,51.85 -32.69,-5.25 -38.48,28.6 -49.95,26.12 -11.47,-2.49 -55.21,-25.68 -51.1,-34.16z"/>
   <path class="fil21" d="M311.45 292.99c15.01,-16.58 33.82,-20.61 50.92,-9.19 17.1,11.43 25.67,29.43 15.79,53.54 -7.54,18.38 -38.62,17.63 -55.72,6.21 -17.09,-11.43 -24.32,-35.84 -10.99,-50.56z"/>
   <path class="fil21" d="M101.52 174.25c0,0 -1.2,-17.84 -12.69,-25.36 -11.48,-7.53 -42.36,-11.73 -41.42,-27.64 0.94,-15.9 18.7,-23.22 28.13,-18.5 9.43,4.72 7.62,13.44 12.85,12.87 5.23,-0.57 34.39,-8 27.43,-23.28 -6.95,-15.28 -32.1,-31.86 -56.86,-25.14 -24.76,6.72 -57.29,16.96 -55,49.95 2.3,32.99 18.08,41.43 37.86,44.1 19.77,2.68 17.2,23.22 24.25,23.78 7.05,0.57 36.34,-5.17 35.45,-10.78z"/>
   <path class="fil21" d="M117.37 203.93c-6.85,9.61 -12.48,18.78 -17.05,27.13 -11.8,2.71 -28.31,-2.36 -29.37,-13.74 -1.51,-15.63 6.56,-24.5 18.44,-28.11 11.86,-3.62 22.01,1.99 27.76,14.17 0.08,0.2 0.16,0.36 0.22,0.55z"/>
  </g>
 </g>
</svg>
