<?xml version="1.0" encoding="UTF-8"?>
<!DOCTYPE svg PUBLIC "-//W3C//DTD SVG 1.1//EN" "http://www.w3.org/Graphics/SVG/1.1/DTD/svg11.dtd">
<!-- Creator: CorelDRAW 2020 (64-Bit Versión de evaluación) -->
<svg xmlns="http://www.w3.org/2000/svg" xml:space="preserve" width="200px" height="196px" version="1.1" style="shape-rendering:geometricPrecision; text-rendering:geometricPrecision; image-rendering:optimizeQuality; fill-rule:evenodd; clip-rule:evenodd"
viewBox="0 0 200 196.5"
 xmlns:xlink="http://www.w3.org/1999/xlink"
 xmlns:xodm="http://www.corel.com/coreldraw/odm/2003">
 <defs>
  <style type="text/css">
   <![CDATA[
    .fil0 {fill:#F25900;fill-rule:nonzero}
   ]]>
  </style>
 </defs>
 <g id="Capa_x0020_1">
  <metadata id="CorelCorpID_0Corel-Layer"/>
  <path class="fil0" d="M0.74 64.88c3.22,23.14 14.36,45.44 25.28,65.84 6.41,11.95 13.21,23.77 21.39,34.61 5.13,6.8 9.75,13.96 14.73,20.86 2.79,3.87 5.19,9.23 10.14,10.69 5.61,1.64 12.62,-2.56 17.69,-4.71 6.66,-2.83 13.16,-6.05 19.5,-9.56 12.63,-6.99 24.62,-15.14 35.97,-24.05 31.55,-24.77 70.43,-67.78 47.8,-110.8 -9.03,-17.17 -28.69,-27.99 -47.94,-22.98 -18.64,4.84 -30.69,20.35 -39.73,36.56 -3.7,-20.64 -14.51,-41.4 -32.4,-52.6 -16.58,-10.38 -38.87,-11.48 -54.35,1.63 -15.91,13.49 -20.88,34.48 -18.08,54.51z"/>
 </g>
</svg>
